<svg width="35" height="35" viewBox="0 0 35 35" fill="none" xmlns="http://www.w3.org/2000/svg">
<path fill-rule="evenodd" clip-rule="evenodd" d="M17.5 35C27.165 35 35 27.165 35 17.5C35 7.83502 27.165 0 17.5 0C7.83502 0 0 7.83502 0 17.5C0 27.165 7.83502 35 17.5 35ZM22.0299 10.0905C22.6322 9.5217 22.6593 8.57234 22.0905 7.97006C21.5217 7.36779 20.5723 7.34066 19.9701 7.90948L10.9701 16.4095C10.67 16.6928 10.5 17.0873 10.5 17.5C10.5 17.9127 10.67 18.3072 10.9701 18.5905L19.9701 27.0905C20.5723 27.6593 21.5217 27.6322 22.0905 27.0299C22.6593 26.4277 22.6322 25.4783 22.0299 24.9095L14.1846 17.5L22.0299 10.0905Z" fill="white"/>
</svg>
