<svg width="35" height="35" viewBox="0 0 35 35" fill="none" xmlns="http://www.w3.org/2000/svg">
<path fill-rule="evenodd" clip-rule="evenodd" d="M17.5 -1.5299e-06C7.83502 -2.37484e-06 2.37484e-06 7.83501 1.5299e-06 17.5C6.84959e-07 27.165 7.83502 35 17.5 35C27.165 35 35 27.165 35 17.5C35 7.83502 27.165 -6.84959e-07 17.5 -1.5299e-06ZM12.9701 24.9095C12.3678 25.4783 12.3407 26.4277 12.9095 27.0299C13.4783 27.6322 14.4277 27.6593 15.0299 27.0905L24.0299 18.5905C24.33 18.3072 24.5 17.9127 24.5 17.5C24.5 17.0873 24.33 16.6928 24.0299 16.4095L15.0299 7.90948C14.4277 7.34066 13.4783 7.36779 12.9095 7.97006C12.3407 8.57234 12.3678 9.5217 12.9701 10.0905L20.8154 17.5L12.9701 24.9095Z" fill="white"/>
</svg>
