<svg width="176" height="37" viewBox="0 0 176 37" fill="none" xmlns="http://www.w3.org/2000/svg">
<path d="M10.634 17.822C10.9807 17.8047 11.31 17.7873 11.622 17.77C11.934 17.7527 12.22 17.7267 12.48 17.692C13.1733 17.6227 13.728 17.7527 14.144 18.082C14.56 18.394 14.768 18.8273 14.768 19.382C14.768 19.9887 14.5773 20.474 14.196 20.838C13.832 21.202 13.312 21.41 12.636 21.462C12.0293 21.514 11.2667 21.5573 10.348 21.592C9.44667 21.6267 8.51933 21.644 7.566 21.644C6.61267 21.644 5.68533 21.6353 4.784 21.618C3.9 21.5833 3.172 21.54 2.6 21.488C1.924 21.436 1.39533 21.228 1.014 20.864C0.65 20.4827 0.468 19.9887 0.468 19.382C0.468 18.8273 0.65 18.394 1.014 18.082C1.39533 17.7527 1.924 17.6313 2.6 17.718C2.89467 17.7527 3.224 17.7787 3.588 17.796C3.96933 17.8133 4.37667 17.8307 4.81 17.848V17.38V17.146C4.37667 17.146 3.89133 17.1373 3.354 17.12C2.81667 17.0853 2.30533 16.9987 1.82 16.86C1.33467 16.704 0.918667 16.47 0.572 16.158C0.242667 15.846 0.0693333 15.3953 0.052 14.806C0.0173333 14.3727 0.052 14 0.156 13.688C0.26 13.3587 0.398667 13.09 0.572 12.882C0.762667 12.674 0.979333 12.5093 1.222 12.388C1.482 12.2667 1.742 12.18 2.002 12.128C2.45267 12.024 2.86 11.9027 3.224 11.764C3.60533 11.608 3.91733 11.426 4.16 11.218C4.056 11.218 3.952 11.218 3.848 11.218C3.744 11.2007 3.63133 11.192 3.51 11.192C2.53933 11.1573 1.81133 11.0013 1.326 10.724C0.858 10.4467 0.624 10.022 0.624 9.45C0.624 8.86067 0.858 8.42733 1.326 8.15C1.81133 7.87267 2.53933 7.71667 3.51 7.682C3.73533 7.66467 3.952 7.656 4.16 7.656C4.38533 7.63867 4.602 7.63 4.81 7.63C4.72333 7.474 4.68 7.30067 4.68 7.11C4.68 6.72867 4.92267 6.408 5.408 6.148C5.89333 5.888 6.66467 5.758 7.722 5.758C8.814 5.758 9.60267 5.888 10.088 6.148C10.5733 6.408 10.816 6.72867 10.816 7.11C10.816 7.30067 10.7727 7.474 10.686 7.63C10.8767 7.63 11.076 7.63867 11.284 7.656C11.492 7.656 11.7 7.66467 11.908 7.682C12.8787 7.71667 13.598 7.87267 14.066 8.15C14.534 8.42733 14.768 8.86067 14.768 9.45C14.768 10.022 14.534 10.4467 14.066 10.724C13.598 11.0013 12.8787 11.1573 11.908 11.192C11.7693 11.2093 11.6307 11.2267 11.492 11.244C11.3707 11.244 11.2407 11.244 11.102 11.244C11.3967 11.452 11.752 11.634 12.168 11.79C12.584 11.9287 13 12.05 13.416 12.154C14.0227 12.31 14.4733 12.6307 14.768 13.116C15.08 13.584 15.1927 14.1473 15.106 14.806C15.002 15.638 14.716 16.2447 14.248 16.626C13.7973 17.0073 13.104 17.198 12.168 17.198C11.856 17.198 11.57 17.198 11.31 17.198C11.0673 17.198 10.842 17.1807 10.634 17.146V17.38V17.822ZM21.918 18.004C21.9007 18.1773 21.8833 18.3507 21.866 18.524C21.8487 18.68 21.8227 18.8447 21.788 19.018C21.6493 19.9713 21.2853 20.6733 20.696 21.124C20.124 21.5747 19.3787 21.8 18.46 21.8C17.4027 21.8 16.5707 21.54 15.964 21.02C15.3573 20.5 15.1233 19.72 15.262 18.68C15.4527 17.068 15.548 15.5427 15.548 14.104C15.548 12.6653 15.4613 11.2093 15.288 9.736C15.132 8.55733 15.3573 7.69933 15.964 7.162C16.5707 6.60733 17.4027 6.33 18.46 6.33C19.3787 6.33 20.1327 6.564 20.722 7.032C21.3113 7.48267 21.6667 8.19333 21.788 9.164C21.8227 9.35467 21.8487 9.554 21.866 9.762C21.8833 9.97 21.9093 10.1693 21.944 10.36L22.75 10.256C23.3567 10.1867 23.8247 10.464 24.154 11.088C24.4833 11.712 24.648 12.7433 24.648 14.182C24.648 15.6033 24.4833 16.6347 24.154 17.276C23.8247 17.9 23.3567 18.1687 22.75 18.082L21.918 18.004ZM8.112 15.508H8.502H8.866C8.84867 15.4213 8.84 15.326 8.84 15.222C8.84 15.118 8.84 15.0053 8.84 14.884C8.84 14.312 8.75333 13.8267 8.58 13.428C8.40667 13.0293 8.05133 12.6653 7.514 12.336C7.42733 12.284 7.332 12.2667 7.228 12.284C7.124 12.284 7.02867 12.3013 6.942 12.336C6.87267 12.3707 6.82933 12.4227 6.812 12.492C6.79467 12.544 6.838 12.596 6.942 12.648C7.358 12.8907 7.65267 13.1853 7.826 13.532C8.01667 13.8787 8.112 14.3813 8.112 15.04V15.508ZM10.036 24.036C10.9373 23.984 11.8473 23.984 12.766 24.036V23.646C12.766 23.3167 12.9653 23.0307 13.364 22.788C13.7627 22.5453 14.2653 22.372 14.872 22.268C15.496 22.1467 16.172 22.086 16.9 22.086C17.628 22.086 18.3127 22.1553 18.954 22.294C19.6127 22.4327 20.1847 22.6407 20.67 22.918C21.1727 23.1953 21.4847 23.5507 21.606 23.984C21.814 24.5907 21.918 25.2927 21.918 26.09C21.918 26.87 21.788 27.5893 21.528 28.248C21.3373 28.8027 20.904 29.1927 20.228 29.418C19.552 29.6607 18.668 29.8253 17.576 29.912C13.468 30.224 9.34267 30.224 5.2 29.912C4.108 29.8253 3.224 29.6607 2.548 29.418C1.88933 29.1927 1.456 28.8027 1.248 28.248C1.00533 27.5893 0.884 26.87 0.884 26.09C0.884 25.2927 0.979333 24.5907 1.17 23.984C1.30867 23.5507 1.62067 23.1953 2.106 22.918C2.60867 22.6407 3.18933 22.4327 3.848 22.294C4.50667 22.1553 5.19133 22.086 5.902 22.086C6.63 22.086 7.29733 22.1467 7.904 22.268C8.528 22.372 9.03933 22.5453 9.438 22.788C9.83667 23.0133 10.036 23.2993 10.036 23.646V24.036ZM9.516 27.13C10.1227 27.442 10.7467 27.598 11.388 27.598C12.0293 27.598 12.6533 27.442 13.26 27.13C13.416 27.0433 13.5027 26.948 13.52 26.844C13.5373 26.7227 13.5287 26.6187 13.494 26.532C13.4073 26.2547 13.234 26.1767 12.974 26.298C12.4887 26.5927 11.9513 26.74 11.362 26.74C10.7727 26.74 10.244 26.584 9.776 26.272C9.68933 26.2373 9.58533 26.2373 9.464 26.272C9.34267 26.3067 9.256 26.3933 9.204 26.532C9.152 26.6013 9.14333 26.688 9.178 26.792C9.21267 26.896 9.32533 27.0087 9.516 27.13ZM46.9091 17.458C46.8917 17.5967 46.8744 17.744 46.8571 17.9C46.8571 18.0387 46.8397 18.1773 46.8051 18.316C46.6664 19.2 46.3024 19.8413 45.7131 20.24C45.1411 20.6387 44.3871 20.838 43.4511 20.838C42.5324 20.838 41.7784 20.6733 41.1891 20.344C40.5997 19.9973 40.2704 19.46 40.2011 18.732C39.8544 19.3907 39.3344 19.8673 38.6411 20.162C37.9477 20.4567 37.1677 20.604 36.3011 20.604C36.0237 20.604 35.7204 20.5867 35.3911 20.552C35.0617 20.5 34.7237 20.4133 34.3771 20.292C34.0304 20.1707 33.6837 19.9973 33.3371 19.772C33.0077 19.5293 32.7044 19.2087 32.4271 18.81C32.3404 18.706 32.2277 18.6887 32.0891 18.758C31.9677 18.81 31.9504 18.888 32.0371 18.992C32.1411 19.1827 32.2971 19.3907 32.5051 19.616C32.7131 19.824 32.9557 20.006 33.2331 20.162C32.7997 20.3873 32.2451 20.552 31.5691 20.656C30.8931 20.7427 30.2604 20.786 29.6711 20.786C28.4577 20.786 27.4611 20.5 26.6811 19.928C25.9011 19.3387 25.3897 18.5327 25.1471 17.51C25.0257 16.9727 24.9304 16.3833 24.8611 15.742C24.7917 15.1007 24.7571 14.4507 24.7571 13.792C24.7571 13.1333 24.7831 12.4833 24.8351 11.842C24.9044 11.2007 25.0084 10.594 25.1471 10.022C25.3724 9.01667 25.7884 8.228 26.3951 7.656C27.0017 7.084 27.8684 6.798 28.9951 6.798C29.2551 6.798 29.5497 6.80667 29.8791 6.824C30.2084 6.84133 30.5291 6.88467 30.8411 6.954C31.1704 7.006 31.4737 7.09267 31.7511 7.214C32.0457 7.318 32.2797 7.45667 32.4531 7.63C32.2624 7.82067 32.0717 8.046 31.8811 8.306C31.7077 8.54867 31.5777 8.84333 31.4911 9.19C31.4391 9.31133 31.4997 9.398 31.6731 9.45C31.8464 9.48467 31.9677 9.43267 32.0371 9.294C32.2624 8.58333 32.6611 8.01133 33.2331 7.578C33.8051 7.14467 34.5071 6.88467 35.3391 6.798C36.7431 6.71133 37.7744 6.86733 38.4331 7.266C39.0917 7.66467 39.4644 8.358 39.5511 9.346C39.5857 9.71 39.5597 10.0567 39.4731 10.386C39.4037 10.7153 39.2737 11.0013 39.0831 11.244C38.9097 11.4867 38.6844 11.6773 38.4071 11.816C38.1471 11.9547 37.8351 12.0067 37.4711 11.972C37.7137 12.3533 37.8351 12.7953 37.8351 13.298C37.8524 13.8007 37.7657 14.2773 37.5751 14.728C37.6791 14.6413 37.8177 14.5633 37.9911 14.494C38.1817 14.4247 38.3724 14.39 38.5631 14.39C39.0137 14.39 39.3951 14.494 39.7071 14.702C40.0364 14.8927 40.2791 15.2133 40.4351 15.664C40.5044 14.5893 40.5217 13.532 40.4871 12.492C40.4697 11.4347 40.3917 10.412 40.2531 9.424C40.1144 8.34933 40.3484 7.56933 40.9551 7.084C41.5617 6.59867 42.3937 6.356 43.4511 6.356C44.3871 6.356 45.1411 6.564 45.7131 6.98C46.3024 7.37867 46.6664 8.02 46.8051 8.904C46.8224 9.04267 46.8397 9.18133 46.8571 9.32C46.8744 9.45867 46.8917 9.59733 46.9091 9.736L47.4551 9.684C48.0617 9.61467 48.5297 9.892 48.8591 10.516C49.1884 11.14 49.3531 12.1713 49.3531 13.61C49.3531 15.0313 49.1884 16.054 48.8591 16.678C48.5297 17.302 48.0617 17.5793 47.4551 17.51L46.9091 17.458ZM30.1651 11.972C30.4077 12.3533 30.5291 12.8213 30.5291 13.376C30.5291 13.9307 30.4337 14.4247 30.2431 14.858C30.4164 14.7713 30.6157 14.702 30.8411 14.65C31.0664 14.598 31.3351 14.572 31.6471 14.572C31.7337 14.572 31.8117 14.5807 31.8811 14.598C31.9504 14.598 32.0371 14.598 32.1411 14.598V11.972H30.1651ZM37.1071 24.166C36.1191 25.05 35.0184 25.7607 33.8051 26.298C32.6091 26.818 31.3351 27.0607 29.9831 27.026C28.7351 26.9913 27.7557 26.8007 27.0451 26.454C26.3517 26.09 25.9704 25.5007 25.9011 24.686C25.8664 24.27 25.9444 23.8973 26.1351 23.568C26.3431 23.2387 26.6377 22.944 27.0191 22.684C27.4177 22.424 27.8944 22.2073 28.4491 22.034C29.0211 21.8433 29.6537 21.696 30.3471 21.592C31.2831 21.436 32.2711 21.306 33.3111 21.202C34.3511 21.0807 35.3911 20.994 36.4311 20.942C37.4711 20.89 38.4851 20.89 39.4731 20.942C40.4784 20.9767 41.4144 21.0807 42.2811 21.254C43.5291 21.4967 44.5171 21.8347 45.2451 22.268C45.9731 22.7013 46.4671 23.1867 46.7271 23.724C46.9004 24.088 47.0131 24.4693 47.0651 24.868C47.1344 25.2667 47.1431 25.6567 47.0911 26.038C47.0564 26.4193 46.9697 26.7833 46.8311 27.13C46.6924 27.4767 46.5104 27.7627 46.2851 27.988C45.7477 28.5427 45.0717 29.0193 44.2571 29.418C43.4424 29.8167 42.3591 30.0247 41.0071 30.042C39.6031 30.0767 38.5024 29.86 37.7051 29.392C36.9251 28.9413 36.4137 28.3693 36.1711 27.676C35.9804 27.1387 36.0324 26.5927 36.3271 26.038C36.6217 25.4833 37.0637 24.9287 37.6531 24.374C37.7571 24.2527 37.7224 24.166 37.5491 24.114C37.3931 24.062 37.2457 24.0793 37.1071 24.166ZM61.5782 20.786C61.5955 21.15 61.6042 21.54 61.6042 21.956C61.6215 22.372 61.6215 22.8313 61.6042 23.334C61.5695 24.6167 61.4915 25.648 61.3702 26.428C61.2662 27.208 61.1188 27.8147 60.9282 28.248C60.7548 28.6813 60.5295 28.9673 60.2522 29.106C59.9748 29.262 59.6455 29.34 59.2642 29.34C58.7788 29.34 58.3715 29.2707 58.0422 29.132C57.7128 28.9933 57.4442 28.7073 57.2362 28.274C57.0282 27.858 56.8808 27.2513 56.7942 26.454C56.7075 25.6567 56.6642 24.608 56.6642 23.308C56.6642 22.3027 56.6122 21.3667 56.5082 20.5C56.4215 19.6333 56.3002 18.8793 56.1442 18.238C56.0922 18.0647 56.0142 17.9433 55.9102 17.874C55.8235 17.8047 55.7368 17.7873 55.6502 17.822C55.5635 17.8393 55.4942 17.9 55.4422 18.004C55.4075 18.108 55.4075 18.238 55.4422 18.394C55.6155 18.9833 55.7542 19.7287 55.8582 20.63C55.9795 21.514 56.0402 22.5367 56.0402 23.698C56.0402 24.8767 55.9795 25.83 55.8582 26.558C55.7542 27.286 55.5808 27.8493 55.3382 28.248C55.0955 28.6467 54.7748 28.9067 54.3762 29.028C53.9775 29.1667 53.4835 29.236 52.8942 29.236C51.9062 29.236 51.1175 28.7593 50.5282 27.806C49.9562 26.87 49.6442 25.3013 49.5922 23.1C49.5748 22.112 49.6008 21.2627 49.6702 20.552C49.7568 19.8413 49.8695 19.2087 50.0082 18.654C50.1468 18.0993 50.3115 17.6053 50.5022 17.172C50.7102 16.7387 50.9268 16.314 51.1522 15.898C51.3602 15.4993 51.5162 15.1093 51.6202 14.728C51.7415 14.3467 51.8368 13.896 51.9062 13.376C51.2995 13.2893 50.7535 13.0553 50.2682 12.674C49.8002 12.2927 49.5662 11.7467 49.5662 11.036C49.5662 10.6027 49.6528 10.2213 49.8262 9.892C50.0168 9.54533 50.2508 9.27667 50.5282 9.086C50.8228 8.89533 51.1522 8.78267 51.5162 8.748C51.8802 8.71333 52.2442 8.78267 52.6082 8.956C52.3655 8.76533 52.2008 8.58333 52.1142 8.41C52.0448 8.21933 52.0102 8.02867 52.0102 7.838C52.0102 7.35267 52.3308 6.96267 52.9722 6.668C53.6308 6.37333 54.4975 6.226 55.5722 6.226C56.6295 6.226 57.4788 6.37333 58.1202 6.668C58.7788 6.96267 59.1082 7.35267 59.1082 7.838C59.1082 8.02867 59.0648 8.21933 58.9782 8.41C58.9088 8.58333 58.7528 8.76533 58.5102 8.956C58.8742 8.78267 59.2295 8.71333 59.5762 8.748C59.9402 8.78267 60.2695 8.89533 60.5642 9.086C60.8588 9.27667 61.0928 9.54533 61.2662 9.892C61.4568 10.2213 61.5522 10.6027 61.5522 11.036C61.5522 11.712 61.3268 12.2407 60.8762 12.622C60.4428 12.986 59.9315 13.2287 59.3422 13.35C59.4115 13.61 59.4808 13.8613 59.5502 14.104C59.6368 14.3467 59.7322 14.5807 59.8362 14.806H62.6182C62.5835 14.0433 62.5488 13.298 62.5142 12.57C62.4795 11.8247 62.4275 11.0793 62.3582 10.334C62.2368 9.05133 62.4102 8.11533 62.8782 7.526C63.3462 6.91933 63.9875 6.616 64.8022 6.616C65.5302 6.616 66.1195 6.86733 66.5702 7.37C67.0382 7.87267 67.3155 8.644 67.4022 9.684C67.6275 12.4747 67.7402 15.3607 67.7402 18.342C67.7402 21.3233 67.6275 24.2093 67.4022 27C67.3155 28.04 67.0382 28.8113 66.5702 29.314C66.1195 29.8167 65.5302 30.068 64.8022 30.068C63.9702 30.068 63.3202 29.7733 62.8522 29.184C62.3842 28.5947 62.2022 27.728 62.3062 26.584C62.3928 25.6133 62.4622 24.6513 62.5142 23.698C62.5662 22.7273 62.6095 21.7567 62.6442 20.786H61.5782ZM70.6002 30.224C69.7855 30.224 69.1355 29.9293 68.6502 29.34C68.1822 28.7507 68.0088 27.8667 68.1302 26.688C68.3728 23.88 68.4942 21.0893 68.4942 18.316C68.5115 15.5427 68.3988 12.8127 68.1562 10.126C68.0348 8.84333 68.2082 7.89 68.6762 7.266C69.1442 6.642 69.7855 6.33 70.6002 6.33C71.3282 6.33 71.9262 6.59 72.3942 7.11C72.8622 7.63 73.1395 8.42733 73.2262 9.502C73.4342 12.3273 73.5382 15.2567 73.5382 18.29C73.5382 21.3233 73.4342 24.2613 73.2262 27.104C73.1395 28.144 72.8622 28.924 72.3942 29.444C71.9262 29.964 71.3282 30.224 70.6002 30.224Z" fill="white"/>
<path d="M93.094 7H98.84V16.282H101.102V17.738H98.84V28.84H93.094V7ZM77.442 7H83.162V13.032H86.048V7H91.794V28.58H77.442V7ZM86.048 17.816V14.228H83.162V17.816H86.048ZM86.048 22.6V19.012H83.162V22.6H86.048ZM86.048 27.384V23.796H83.162V27.384H86.048ZM102.593 27.644H110.835V23.51H105.115C104.352 23.51 103.745 23.2847 103.295 22.834C102.844 22.3833 102.619 21.7767 102.619 21.014C102.619 20.2513 102.844 19.6447 103.295 19.194C103.745 18.726 104.352 18.492 105.115 18.492H119.129V15.866H105.115C104.352 15.866 103.745 15.6407 103.295 15.19C102.844 14.722 102.619 14.1067 102.619 13.344C102.619 12.5813 102.844 11.9747 103.295 11.524C103.745 11.0733 104.352 10.848 105.115 10.848H119.129V8.196H103.087V7H122.353C123.115 7 123.722 7.234 124.173 7.702C124.641 8.15267 124.875 8.75933 124.875 9.522C124.875 10.2847 124.641 10.9 124.173 11.368C123.722 11.8187 123.115 12.044 122.353 12.044H108.339V14.67H122.353C123.115 14.67 123.722 14.904 124.173 15.372C124.641 15.8227 124.875 16.4207 124.875 17.166C124.875 17.9287 124.641 18.544 124.173 19.012C123.722 19.4627 123.115 19.688 122.353 19.688H108.339V22.314H124.875V23.51H116.815V27.15C116.815 27.4793 116.971 27.644 117.283 27.644H125.057V28.84H102.593V27.644ZM126.651 27.878C127.813 27.878 128.87 27.644 129.823 27.176C130.777 26.708 131.591 26.032 132.267 25.148C132.943 24.2467 133.463 23.1547 133.827 21.872C134.209 20.5893 134.399 19.1247 134.399 17.478V8.196H126.859V7H139.677C139.885 7 140.05 7.06933 140.171 7.208C140.31 7.34667 140.379 7.52 140.379 7.728V17.062C140.379 18.6393 140.163 20.0347 139.729 21.248C139.296 22.444 138.715 23.4753 137.987 24.342C137.259 25.2087 136.427 25.928 135.491 26.5C134.555 27.0893 133.576 27.5573 132.553 27.904C131.531 28.2507 130.508 28.4933 129.485 28.632C128.48 28.7707 127.535 28.84 126.651 28.84V27.878ZM142.199 7H147.945V16.282H150.207V17.738H147.945V28.84H142.199V7ZM151.438 27.878C152.634 27.878 153.718 27.644 154.688 27.176C155.676 26.708 156.517 26.032 157.21 25.148C157.921 24.2467 158.467 23.1547 158.848 21.872C159.247 20.5893 159.446 19.1247 159.446 17.478V8.196H151.672V7H164.698C164.924 7 165.097 7.06933 165.218 7.208C165.357 7.34667 165.426 7.52 165.426 7.728V17.062C165.426 18.6393 165.201 20.0347 164.75 21.248C164.317 22.444 163.728 23.4753 162.982 24.342C162.254 25.2087 161.405 25.928 160.434 26.5C159.481 27.0893 158.484 27.5573 157.444 27.904C156.422 28.2507 155.39 28.4933 154.35 28.632C153.31 28.7707 152.34 28.84 151.438 28.84V27.878ZM168.182 7H173.928V28.84H168.182V7Z" fill="white"/>
</svg>
