<svg width="230" height="320" viewBox="0 0 230 320" fill="none" xmlns="http://www.w3.org/2000/svg">
<path d="M4.07084 23.4242C3.17255 24.2695 2.7234 24.6922 2.34228 25.1474C1.09081 26.6418 0.303396 28.4694 0.0768592 30.4055C0.0078697 30.9951 0.00916738 31.6118 0.0117627 32.8454L0.588852 307.127C0.594513 309.818 0.597344 311.163 0.857262 312.275C1.7246 315.987 4.62647 318.883 8.33988 319.742C9.45269 320 10.7981 320 13.4888 320L217.1 320C219.796 320 221.144 320 222.258 319.741C225.976 318.88 228.88 315.976 229.742 312.258C230 311.143 230 309.796 230 307.1L230 12.8997C230 10.2039 230 8.85597 229.742 7.74173C228.88 4.02334 225.976 1.11989 222.258 0.258013C221.144 -0.00025271 219.796 -0.000252659 217.1 -0.000252557L34.0765 -0.000245601C32.9445 -0.000245558 32.3785 -0.000245536 31.8338 0.0596299C30.0468 0.256068 28.3458 0.930618 26.9098 2.01228C26.4721 2.34198 26.0599 2.72988 25.2356 3.50569L4.07084 23.4242Z" fill="url(#paint0_linear_9943_48659)"/>
<defs>
<linearGradient id="paint0_linear_9943_48659" x1="40.5" y1="272.05" x2="207.199" y2="15.5617" gradientUnits="userSpaceOnUse">
<stop stop-color="#0E6FEA"/>
<stop offset="1" stop-color="#1491EE"/>
</linearGradient>
</defs>
</svg>
