<svg width="24" height="24" viewBox="0 0 24 24" fill="none" xmlns="http://www.w3.org/2000/svg">
<path fill-rule="evenodd" clip-rule="evenodd" d="M22 5.99976C22 7.10433 21.1046 7.99976 20 7.99976C18.8954 7.99976 18 7.10433 18 5.99976C18 4.89519 18.8954 3.99976 20 3.99976C21.1046 3.99976 22 4.89519 22 5.99976ZM22 11.9998C22 13.1043 21.1046 13.9998 20 13.9998C18.8954 13.9998 18 13.1043 18 11.9998C18 10.8952 18.8954 9.99976 20 9.99976C21.1046 9.99976 22 10.8952 22 11.9998ZM20 19.9998C21.1046 19.9998 22 19.1043 22 17.9998C22 16.8952 21.1046 15.9998 20 15.9998C18.8954 15.9998 18 16.8952 18 17.9998C18 19.1043 18.8954 19.9998 20 19.9998Z" fill="white"/>
</svg>
