<svg width="14" height="15" viewBox="0 0 14 15" fill="none" xmlns="http://www.w3.org/2000/svg">
<path d="M7.42983 2.36795L8.79269 5.11938C8.82368 5.18921 8.87244 5.24971 8.9341 5.29482C8.99576 5.33994 9.06817 5.36811 9.14411 5.37652L12.1527 5.82224C12.2398 5.83343 12.3219 5.86918 12.3895 5.92531C12.457 5.98144 12.5072 6.05563 12.5342 6.13922C12.5611 6.2228 12.5638 6.31234 12.5418 6.39736C12.5197 6.48239 12.474 6.55939 12.4098 6.61938L10.2413 8.77081C10.1859 8.82252 10.1444 8.88724 10.1204 8.9591C10.0965 9.03096 10.0909 9.10766 10.1041 9.18224L10.627 12.2079C10.6421 12.2949 10.6325 12.3843 10.5994 12.4661C10.5662 12.5479 10.5107 12.6187 10.4392 12.6705C10.3678 12.7223 10.2832 12.753 10.1952 12.7591C10.1072 12.7652 10.0192 12.7465 9.94126 12.7051L7.23269 11.2737C7.16333 11.2396 7.08709 11.2219 7.00983 11.2219C6.93257 11.2219 6.85633 11.2396 6.78697 11.2737L4.0784 12.7051C4.00048 12.7465 3.91249 12.7652 3.82445 12.7591C3.73641 12.753 3.65186 12.7223 3.58041 12.6705C3.50897 12.6187 3.45349 12.5479 3.4203 12.4661C3.38712 12.3843 3.37755 12.2949 3.39269 12.2079L3.91554 9.14795C3.92879 9.07337 3.92319 8.99667 3.89924 8.92481C3.87529 8.85296 3.83375 8.78823 3.7784 8.73652L1.58411 6.61938C1.5192 6.55775 1.47354 6.47861 1.45268 6.39156C1.43182 6.30451 1.43665 6.21328 1.46659 6.12892C1.49652 6.04456 1.55028 5.97069 1.62134 5.91626C1.6924 5.86182 1.77773 5.82916 1.86697 5.82224L4.87554 5.37652C4.95148 5.36811 5.02389 5.33994 5.08556 5.29482C5.14722 5.24971 5.19598 5.18921 5.22697 5.11938L6.58983 2.36795C6.62694 2.28781 6.68621 2.21997 6.76063 2.17242C6.83505 2.12487 6.92152 2.09961 7.00983 2.09961C7.09814 2.09961 7.18461 2.12487 7.25903 2.17242C7.33345 2.21997 7.39272 2.28781 7.42983 2.36795Z" fill="#FED91A" stroke="#FED91A" stroke-linecap="round" stroke-linejoin="round"/>
</svg>
