<svg width="24" height="24" viewBox="0 0 24 24" fill="none" xmlns="http://www.w3.org/2000/svg">
<path fill-rule="evenodd" clip-rule="evenodd" d="M12.0879 3C10.4736 3 8.92547 3.64127 7.784 4.78275C6.64253 5.92422 6.00125 7.47239 6.00125 9.08667V13.7563C6.00125 14.0881 5.86942 14.4064 5.63477 14.641C5.40011 14.8757 5.08185 15.0075 4.75 15.0075C4.33579 15.0075 4 15.3433 4 15.7575C4 16.1717 4.33579 16.5075 4.75 16.5075H19.4259C19.8401 16.5075 20.1759 16.1717 20.1759 15.7575C20.1759 15.3433 19.8401 15.0075 19.4259 15.0075C19.094 15.0075 18.7757 14.8757 18.5411 14.641C18.3064 14.4064 18.1746 14.0881 18.1746 13.7563V9.08667C18.1746 7.47239 17.5333 5.92422 16.3919 4.78275C15.2504 3.64127 13.7022 3 12.0879 3ZM16.6746 13.7563C16.6746 14.1954 16.7796 14.6236 16.9756 15.0075H7.20026C7.39629 14.6236 7.50125 14.1954 7.50125 13.7563V9.08667C7.50125 7.87021 7.98449 6.70357 8.84466 5.84341C9.70483 4.98324 10.8715 4.5 12.0879 4.5C13.3044 4.5 14.471 4.98324 15.3312 5.84341C16.1914 6.70357 16.6746 7.87021 16.6746 9.08667V13.7563ZM10.7034 18.9231C10.2891 18.9231 9.95335 19.2589 9.95335 19.6731C9.95335 20.0873 10.2891 20.4231 10.7034 20.4231H12.088H13.4726C13.8868 20.4231 14.2226 20.0873 14.2226 19.6731C14.2226 19.2589 13.8868 18.9231 13.4726 18.9231H12.088H10.7034Z" fill="#C7C7CC"/>
</svg>
