<svg width="50" height="50" viewBox="0 0 50 50" fill="none" xmlns="http://www.w3.org/2000/svg">
<path d="M8.33334 9.375H14.3996L16.5607 30.8614C16.6505 31.4537 16.9514 31.9936 17.4078 32.3816C17.8643 32.7696 18.4456 32.9795 19.0447 32.9728H34.6937C35.2355 33.0011 35.7715 32.8512 36.2199 32.5462C36.6685 32.2412 37.0048 31.7978 37.1777 31.2837L40.4814 21.3478C40.6046 20.9742 40.6374 20.5767 40.5767 20.1881C40.5164 19.7994 40.3644 19.4307 40.1336 19.1122C39.8932 18.7736 39.5715 18.5007 39.1984 18.3184C38.8253 18.1361 38.4122 18.0504 37.9974 18.0689H15.269" stroke="#C7C7CC" stroke-width="1.5" stroke-linecap="round" stroke-linejoin="round"/>
<path d="M34.2713 41.6676C33.5855 41.6676 33.0294 41.1114 33.0294 40.4256C33.0294 39.7398 33.5855 39.1836 34.2713 39.1836C34.9572 39.1836 35.5133 39.7398 35.5133 40.4256C35.5133 41.1114 34.9572 41.6676 34.2713 41.6676Z" stroke="#C7C7CC" stroke-width="1.5" stroke-linecap="round" stroke-linejoin="round"/>
<path d="M18.1255 41.6676C17.4396 41.6676 16.8835 41.1114 16.8835 40.4256C16.8835 39.7398 17.4396 39.1836 18.1255 39.1836C18.8114 39.1836 19.3675 39.7398 19.3675 40.4256C19.3675 41.1114 18.8114 41.6676 18.1255 41.6676Z" stroke="#C7C7CC" stroke-width="1.5" stroke-linecap="round" stroke-linejoin="round"/>
</svg>
