<svg width="16" height="16" viewBox="0 0 16 16" fill="none" xmlns="http://www.w3.org/2000/svg">
<path d="M7.97142 3.42899C8.28701 3.42899 8.54285 3.17315 8.54285 2.85756C8.54285 2.54197 8.28701 2.28613 7.97142 2.28613C7.65583 2.28613 7.39999 2.54197 7.39999 2.85756C7.39999 3.17315 7.65583 3.42899 7.97142 3.42899Z" fill="#C7C7CC" stroke="#C7C7CC" stroke-linecap="round" stroke-linejoin="round"/>
<path d="M7.97142 8.57157C8.28701 8.57157 8.54285 8.31573 8.54285 8.00014C8.54285 7.68455 8.28701 7.42871 7.97142 7.42871C7.65583 7.42871 7.39999 7.68455 7.39999 8.00014C7.39999 8.31573 7.65583 8.57157 7.97142 8.57157Z" fill="#C7C7CC" stroke="#C7C7CC" stroke-linecap="round" stroke-linejoin="round"/>
<path d="M7.97142 13.7141C8.28701 13.7141 8.54285 13.4583 8.54285 13.1427C8.54285 12.8271 8.28701 12.5713 7.97142 12.5713C7.65583 12.5713 7.39999 12.8271 7.39999 13.1427C7.39999 13.4583 7.65583 13.7141 7.97142 13.7141Z" fill="#C7C7CC" stroke="#C7C7CC" stroke-linecap="round" stroke-linejoin="round"/>
</svg>
