<svg width="21" height="20" viewBox="0 0 21 20" fill="none" xmlns="http://www.w3.org/2000/svg">
<g clip-path="url(#clip0_2468_6968)">
<path d="M2.64244 19.2863H18.3567C19.1457 19.2863 19.7853 18.6467 19.7853 17.8577V2.14342C19.7853 1.35444 19.1457 0.714844 18.3567 0.714844H2.64244C1.85346 0.714844 1.21387 1.35444 1.21387 2.14342V17.8577C1.21387 18.6467 1.85346 19.2863 2.64244 19.2863Z" stroke="#696D70" stroke-linecap="round" stroke-linejoin="round"/>
<path d="M3 19.287L13.4286 9.45841C13.5569 9.35151 13.7187 9.29297 13.8857 9.29297C14.0527 9.29297 14.2145 9.35151 14.3428 9.45841L19.7857 13.3584" stroke="#696D70" stroke-linecap="round" stroke-linejoin="round"/>
<path d="M6.92801 8.57282C8.11148 8.57282 9.07087 7.61344 9.07087 6.42997C9.07087 5.2465 8.11148 4.28711 6.92801 4.28711C5.74454 4.28711 4.78516 5.2465 4.78516 6.42997C4.78516 7.61344 5.74454 8.57282 6.92801 8.57282Z" stroke="#696D70" stroke-linecap="round" stroke-linejoin="round"/>
</g>
<defs>
<clipPath id="clip0_2468_6968">
<rect width="20" height="20" fill="white" transform="translate(0.5)"/>
</clipPath>
</defs>
</svg>
