<svg width="12" height="12" viewBox="0 0 12 12" fill="none" xmlns="http://www.w3.org/2000/svg">
<path d="M6.63572 1.74993C6.57578 1.63293 6.48471 1.53474 6.37255 1.46617C6.26038 1.39761 6.13147 1.36133 6.00001 1.36133C5.86855 1.36133 5.73964 1.39761 5.62747 1.46617C5.5153 1.53474 5.42424 1.63293 5.3643 1.74993L1.43572 9.60707C1.38093 9.71581 1.35484 9.83674 1.35994 9.9584C1.36504 10.0801 1.40115 10.1984 1.46484 10.3022C1.52853 10.4059 1.6177 10.4917 1.72387 10.5513C1.83003 10.6109 1.94968 10.6424 2.07144 10.6428H9.92858C10.0503 10.6424 10.17 10.6109 10.2762 10.5513C10.3823 10.4917 10.4715 10.4059 10.5352 10.3022C10.5989 10.1984 10.635 10.0801 10.6401 9.9584C10.6452 9.83674 10.6191 9.71581 10.5643 9.60707L6.63572 1.74993Z" stroke="#714CDC" stroke-linecap="round" stroke-linejoin="round"/>
<path d="M6 4.57227V6.89369" stroke="#714CDC" stroke-linecap="round" stroke-linejoin="round"/>
<path d="M5.99998 8.85714C5.90136 8.85714 5.82141 8.77719 5.82141 8.67857C5.82141 8.57995 5.90136 8.5 5.99998 8.5" stroke="#714CDC" stroke-linecap="round" stroke-linejoin="round"/>
<path d="M6 8.85714C6.09862 8.85714 6.17857 8.77719 6.17857 8.67857C6.17857 8.57995 6.09862 8.5 6 8.5" stroke="#714CDC" stroke-linecap="round" stroke-linejoin="round"/>
</svg>
