<svg width="25" height="24" viewBox="0 0 25 24" fill="none" xmlns="http://www.w3.org/2000/svg">
<path d="M16.875 14.6667L19.0417 14.125L19.5833 16.2917" stroke="#C7C7CC" stroke-width="1.6" stroke-linecap="round" stroke-linejoin="round"/>
<path d="M19.0416 14.125C18.5809 15.5012 17.7124 16.7047 16.5513 17.5755C15.3903 18.4463 13.9918 18.9431 12.5416 19C11.2071 19.0002 9.90481 18.5897 8.8117 17.8241C7.71858 17.0585 6.88761 15.9751 6.43164 14.7208" stroke="#C7C7CC" stroke-width="1.6" stroke-linecap="round" stroke-linejoin="round"/>
<path d="M8.20832 10.333L6.04166 10.8747L5.5 8.70801" stroke="#C7C7CC" stroke-width="1.6" stroke-linecap="round" stroke-linejoin="round"/>
<path d="M6.0415 10.875C6.52636 9.51381 7.40138 8.32559 8.55734 7.45862C9.7133 6.59165 11.099 6.08434 12.5415 6C13.8825 6.00377 15.1896 6.42223 16.2834 7.19803C17.3773 7.97382 18.2044 9.06896 18.6515 10.3333" stroke="#C7C7CC" stroke-width="1.6" stroke-linecap="round" stroke-linejoin="round"/>
</svg>
