<svg width="16" height="16" viewBox="0 0 16 16" fill="none" xmlns="http://www.w3.org/2000/svg">
<path fill-rule="evenodd" clip-rule="evenodd" d="M13.6571 2.34315C16.7813 5.46734 16.7813 10.5327 13.6571 13.6569C10.5329 16.781 5.46757 16.781 2.34338 13.6569C-0.780817 10.5327 -0.780817 5.46734 2.34338 2.34315C5.46757 -0.781048 10.5329 -0.781048 13.6571 2.34315ZM5.04554 5.0453C5.33843 4.75241 5.8133 4.75241 6.1062 5.0453L8.00023 6.93934L9.89427 5.0453C10.1872 4.75241 10.662 4.75241 10.9549 5.0453C11.2478 5.3382 11.2478 5.81307 10.9549 6.10596L9.06089 8L10.9549 9.89404C11.2478 10.1869 11.2478 10.6618 10.9549 10.9547C10.662 11.2476 10.1872 11.2476 9.89427 10.9547L8.00023 9.06066L6.1062 10.9547C5.8133 11.2476 5.33843 11.2476 5.04554 10.9547C4.75264 10.6618 4.75264 10.1869 5.04554 9.89404L6.93957 8L5.04554 6.10596C4.75264 5.81307 4.75264 5.3382 5.04554 5.0453Z" fill="#696D70"/>
</svg>
