<svg width="25" height="25" viewBox="0 0 25 25" fill="none" xmlns="http://www.w3.org/2000/svg">
<path d="M4.5 5H7.41182L8.44913 15.3135C8.49224 15.5978 8.63665 15.8569 8.85576 16.0432C9.07486 16.2294 9.3539 16.3301 9.64144 16.3269H17.153C17.413 16.3405 17.6703 16.2686 17.8855 16.1222C18.1009 15.9758 18.2623 15.7629 18.3453 15.5162L19.9311 10.7469C19.9902 10.5676 20.0059 10.3768 19.9768 10.1903C19.9479 10.0037 19.8749 9.82672 19.7641 9.67385C19.6487 9.51131 19.4943 9.38031 19.3152 9.29282C19.1361 9.20534 18.9379 9.16417 18.7387 9.17308H7.82913" stroke="#696D70" stroke-linecap="round" stroke-linejoin="round"/>
<path d="M16.9502 20.5009C16.621 20.5009 16.354 20.2339 16.354 19.9047C16.354 19.5756 16.621 19.3086 16.9502 19.3086C17.2794 19.3086 17.5463 19.5756 17.5463 19.9047C17.5463 20.2339 17.2794 20.5009 16.9502 20.5009Z" stroke="#696D70" stroke-linecap="round" stroke-linejoin="round"/>
<path d="M9.20016 20.5009C8.8709 20.5009 8.604 20.2339 8.604 19.9047C8.604 19.5756 8.8709 19.3086 9.20016 19.3086C9.5294 19.3086 9.79631 19.5756 9.79631 19.9047C9.79631 20.2339 9.5294 20.5009 9.20016 20.5009Z" stroke="#696D70" stroke-linecap="round" stroke-linejoin="round"/>
</svg>
