<svg width="24" height="24" viewBox="0 0 24 24" fill="none" xmlns="http://www.w3.org/2000/svg">
<path d="M11.9997 23.1431C18.1537 23.1431 23.1425 18.1543 23.1425 12.0003C23.1425 5.84625 18.1537 0.857422 11.9997 0.857422C5.84564 0.857422 0.856812 5.84625 0.856812 12.0003C0.856812 18.1543 5.84564 23.1431 11.9997 23.1431Z" fill="white"/>
<path d="M11.9997 23.1431C18.1537 23.1431 23.1425 18.1543 23.1425 12.0003C23.1425 5.84625 18.1537 0.857422 11.9997 0.857422C5.84564 0.857422 0.856812 5.84625 0.856812 12.0003C0.856812 18.1543 5.84564 23.1431 11.9997 23.1431Z" stroke="#714CDC" stroke-width="1.71429" stroke-linecap="round" stroke-linejoin="round"/>
<path d="M11.9998 6.85742V17.1431" stroke="#714CDC" stroke-width="1.71429" stroke-linecap="round" stroke-linejoin="round"/>
<path d="M6.85681 12H17.1425" stroke="#714CDC" stroke-width="1.71429" stroke-linecap="round" stroke-linejoin="round"/>
</svg>
