<svg width="24" height="24" viewBox="0 0 24 24" fill="none" xmlns="http://www.w3.org/2000/svg">
<path d="M5.71439 6.28516C5.41129 6.28516 5.1206 6.40556 4.90627 6.61989C4.69194 6.83422 4.57153 7.12491 4.57153 7.42801V18.2852C4.57153 18.5883 4.69194 18.879 4.90627 19.0933C5.1206 19.3076 5.41129 19.428 5.71439 19.428H18.2858C18.5889 19.428 18.8796 19.3076 19.0939 19.0933C19.3083 18.879 19.4287 18.5883 19.4287 18.2852V7.42801C19.4287 7.12491 19.3083 6.83422 19.0939 6.61989C18.8796 6.40556 18.5889 6.28516 18.2858 6.28516H16.0001" stroke="#696D70" stroke-linecap="round" stroke-linejoin="round"/>
<path d="M4.57153 10.2852H19.4287" stroke="#696D70" stroke-linecap="round" stroke-linejoin="round"/>
<path d="M8 4.57227V8.00084" stroke="#696D70" stroke-linecap="round" stroke-linejoin="round"/>
<path d="M16 4.57227V8.00084" stroke="#696D70" stroke-linecap="round" stroke-linejoin="round"/>
<path d="M8 6.28516H13.7143" stroke="#696D70" stroke-linecap="round" stroke-linejoin="round"/>
</svg>
