<svg width="20" height="20" viewBox="0 0 20 20" fill="none" xmlns="http://www.w3.org/2000/svg">
<path d="M6.5 8.5V7.5C6.5 6.96957 6.71071 6.46086 7.08579 6.08579C7.46086 5.71071 7.96957 5.5 8.5 5.5H12.5C13.0304 5.5 13.5391 5.28929 13.9142 4.91421C14.2893 4.53914 14.5 4.03043 14.5 3.5" stroke="#C7C7CC" stroke-width="1.2" stroke-linecap="round" stroke-linejoin="round"/>
<path d="M15.5 8.5H4.5C3.94772 8.5 3.5 8.94772 3.5 9.5V15.5C3.5 16.0523 3.94772 16.5 4.5 16.5H15.5C16.0523 16.5 16.5 16.0523 16.5 15.5V9.5C16.5 8.94772 16.0523 8.5 15.5 8.5Z" stroke="#C7C7CC" stroke-width="1.2" stroke-linecap="round" stroke-linejoin="round"/>
<path d="M8.5 13.75H11.5" stroke="#C7C7CC" stroke-width="1.2" stroke-linecap="round" stroke-linejoin="round"/>
<path d="M5.5 13.75H6.5M13.5 13.75H14.5" stroke="#C7C7CC" stroke-width="1.2" stroke-linecap="round" stroke-linejoin="round"/>
<path d="M5.5 11.25H6.5" stroke="#C7C7CC" stroke-width="1.2" stroke-linecap="round" stroke-linejoin="round"/>
<path d="M8.16675 11.25H9.16675" stroke="#C7C7CC" stroke-width="1.2" stroke-linecap="round" stroke-linejoin="round"/>
<path d="M10.8333 11.25H11.8333" stroke="#C7C7CC" stroke-width="1.2" stroke-linecap="round" stroke-linejoin="round"/>
<path d="M13.5 11.25H14.5" stroke="#C7C7CC" stroke-width="1.2" stroke-linecap="round" stroke-linejoin="round"/>
</svg>
