<svg width="32" height="32" viewBox="0 0 32 32" fill="none" xmlns="http://www.w3.org/2000/svg">
<path d="M9.52379 19.4275C11.4173 19.4275 12.9524 17.8924 12.9524 15.9989C12.9524 14.1053 11.4173 12.5703 9.52379 12.5703C7.63024 12.5703 6.09521 14.1053 6.09521 15.9989C6.09521 17.8924 7.63024 19.4275 9.52379 19.4275Z" stroke="#696D70" stroke-width="1.5" stroke-linecap="round" stroke-linejoin="round"/>
<path d="M22.4762 25.904C24.3697 25.904 25.9048 24.369 25.9048 22.4754C25.9048 20.5819 24.3697 19.0469 22.4762 19.0469C20.5826 19.0469 19.0476 20.5819 19.0476 22.4754C19.0476 24.369 20.5826 25.904 22.4762 25.904Z" stroke="#696D70" stroke-width="1.5" stroke-linecap="round" stroke-linejoin="round"/>
<path d="M22.4762 12.9509C24.3697 12.9509 25.9048 11.4159 25.9048 9.52232C25.9048 7.62877 24.3697 6.09375 22.4762 6.09375C20.5826 6.09375 19.0476 7.62877 19.0476 9.52232C19.0476 11.4159 20.5826 12.9509 22.4762 12.9509Z" stroke="#696D70" stroke-width="1.5" stroke-linecap="round" stroke-linejoin="round"/>
<path d="M12.5867 14.4754L19.4133 11.0469" stroke="#696D70" stroke-width="1.5" stroke-linecap="round" stroke-linejoin="round"/>
<path d="M12.5867 17.5234L19.4133 20.952" stroke="#696D70" stroke-width="1.5" stroke-linecap="round" stroke-linejoin="round"/>
</svg>
