<svg width="14" height="13" viewBox="0 0 14 13" fill="none" xmlns="http://www.w3.org/2000/svg">
<path d="M7.42006 1.4324L8.78292 4.18383C8.81392 4.25367 8.86268 4.31416 8.92434 4.35928C8.986 4.40439 9.05841 4.43256 9.13435 4.44097L12.1429 4.88669C12.23 4.89789 12.3122 4.93364 12.3797 4.98976C12.4473 5.04589 12.4975 5.12008 12.5244 5.20367C12.5514 5.28726 12.554 5.37679 12.532 5.46181C12.51 5.54684 12.4642 5.62384 12.4001 5.68383L10.2315 7.83526C10.1761 7.88697 10.1346 7.9517 10.1107 8.02355C10.0867 8.09541 10.0811 8.17211 10.0943 8.24669L10.6172 11.2724C10.6323 11.3593 10.6228 11.4488 10.5896 11.5306C10.5564 11.6123 10.5009 11.6831 10.4295 11.7349C10.358 11.7867 10.2735 11.8175 10.1854 11.8236C10.0974 11.8297 10.0094 11.811 9.93149 11.7695L7.22292 10.3381C7.15356 10.3041 7.07733 10.2864 7.00006 10.2864C6.9228 10.2864 6.84656 10.3041 6.77721 10.3381L4.06863 11.7695C3.99071 11.811 3.90272 11.8297 3.81469 11.8236C3.72665 11.8175 3.6421 11.7867 3.57065 11.7349C3.4992 11.6831 3.44373 11.6123 3.41054 11.5306C3.37735 11.4488 3.36778 11.3593 3.38292 11.2724L3.90578 8.2124C3.91903 8.13783 3.91342 8.06112 3.88947 7.98927C3.86552 7.91741 3.82398 7.85268 3.76863 7.80097L1.57435 5.68383C1.50943 5.6222 1.46378 5.54307 1.44292 5.45602C1.42206 5.36897 1.42689 5.27773 1.45682 5.19337C1.48676 5.10901 1.54051 5.03514 1.61158 4.98071C1.68264 4.92628 1.76796 4.89362 1.85721 4.88669L4.86578 4.44097C4.94172 4.43256 5.01413 4.40439 5.07579 4.35928C5.13745 4.31416 5.18621 4.25367 5.21721 4.18383L6.58006 1.4324C6.61718 1.35227 6.67644 1.28442 6.75086 1.23687C6.82528 1.18933 6.91175 1.16406 7.00006 1.16406C7.08838 1.16406 7.17485 1.18933 7.24927 1.23687C7.32369 1.28442 7.38295 1.35227 7.42006 1.4324V1.4324Z" stroke="#FED91A" stroke-linecap="round" stroke-linejoin="round"/>
</svg>
