<svg width="14" height="15" viewBox="0 0 14 15" fill="none" xmlns="http://www.w3.org/2000/svg">
<path d="M7 6.5C8.38071 6.5 9.5 5.38071 9.5 4C9.5 2.61929 8.38071 1.5 7 1.5C5.61929 1.5 4.5 2.61929 4.5 4C4.5 5.38071 5.61929 6.5 7 6.5Z" stroke="#30333E" stroke-linecap="round" stroke-linejoin="round"/>
<path d="M1 13.5001H7H13V12.9044C12.9894 12.0668 12.7214 11.245 12.221 10.516C11.7206 9.78686 11.0041 9.1742 10.1386 8.73519C9.273 8.29618 8.28655 8.04514 7.27136 8.00553C7.18085 8.002 7.09037 8.00016 7 8C6.90963 8.00016 6.81915 8.002 6.72864 8.00553C5.71345 8.04514 4.727 8.29618 3.86143 8.73519C2.99587 9.1742 2.27943 9.78686 1.77903 10.516C1.27864 11.245 1.01061 12.0668 1 12.9044V13.5001Z" stroke="#30333E" stroke-linecap="round" stroke-linejoin="round"/>
</svg>
