<svg width="24" height="24" viewBox="0 0 24 24" fill="none" xmlns="http://www.w3.org/2000/svg">
<path d="M7.14296 14.5706C8.56312 14.5706 9.71439 13.4193 9.71439 11.9992C9.71439 10.579 8.56312 9.42773 7.14296 9.42773C5.7228 9.42773 4.57153 10.579 4.57153 11.9992C4.57153 13.4193 5.7228 14.5706 7.14296 14.5706Z" stroke="#30333E" stroke-width="1.5" stroke-linecap="round" stroke-linejoin="round"/>
<path d="M16.8571 19.428C18.2772 19.428 19.4285 18.2767 19.4285 16.8566C19.4285 15.4364 18.2772 14.2852 16.8571 14.2852C15.4369 14.2852 14.2856 15.4364 14.2856 16.8566C14.2856 18.2767 15.4369 19.428 16.8571 19.428Z" stroke="#30333E" stroke-width="1.5" stroke-linecap="round" stroke-linejoin="round"/>
<path d="M16.8571 9.71512C18.2772 9.71512 19.4285 8.56385 19.4285 7.14369C19.4285 5.72353 18.2772 4.57227 16.8571 4.57227C15.4369 4.57227 14.2856 5.72353 14.2856 7.14369C14.2856 8.56385 15.4369 9.71512 16.8571 9.71512Z" stroke="#30333E" stroke-width="1.5" stroke-linecap="round" stroke-linejoin="round"/>
<path d="M9.43994 10.8566L14.5599 8.28516" stroke="#30333E" stroke-width="1.5" stroke-linecap="round" stroke-linejoin="round"/>
<path d="M9.43994 13.1426L14.5599 15.714" stroke="#30333E" stroke-width="1.5" stroke-linecap="round" stroke-linejoin="round"/>
</svg>
