<svg width="24" height="24" viewBox="0 0 24 24" fill="none" xmlns="http://www.w3.org/2000/svg">
<path d="M4 4.5H6.91182L7.94913 14.8135C7.99224 15.0978 8.13665 15.3569 8.35576 15.5432C8.57486 15.7294 8.8539 15.8301 9.14144 15.8269H16.653C16.913 15.8405 17.1703 15.7686 17.3855 15.6222C17.6009 15.4758 17.7623 15.2629 17.8453 15.0162L19.4311 10.2469C19.4902 10.0676 19.5059 9.87683 19.4768 9.69028C19.4479 9.50372 19.3749 9.32672 19.2641 9.17385C19.1487 9.01131 18.9943 8.88031 18.8152 8.79282C18.6361 8.70534 18.4379 8.66417 18.2387 8.67308H7.32913" stroke="#30333E" stroke-width="1.5" stroke-linecap="round" stroke-linejoin="round"/>
<path d="M16.4502 20.0009C16.121 20.0009 15.854 19.7339 15.854 19.4047C15.854 19.0756 16.121 18.8086 16.4502 18.8086C16.7794 18.8086 17.0463 19.0756 17.0463 19.4047C17.0463 19.7339 16.7794 20.0009 16.4502 20.0009Z" stroke="#30333E" stroke-width="1.5" stroke-linecap="round" stroke-linejoin="round"/>
<path d="M8.70016 20.0009C8.3709 20.0009 8.104 19.7339 8.104 19.4047C8.104 19.0756 8.3709 18.8086 8.70016 18.8086C9.0294 18.8086 9.29631 19.0756 9.29631 19.4047C9.29631 19.7339 9.0294 20.0009 8.70016 20.0009Z" stroke="#30333E" stroke-width="1.5" stroke-linecap="round" stroke-linejoin="round"/>
</svg>
