<svg width="32" height="32" viewBox="0 0 32 32" fill="none" xmlns="http://www.w3.org/2000/svg">
<path d="M16 2C12.2008 2 11.723 2.0175 10.2302 2.084C8.7375 2.154 7.72075 2.3885 6.83 2.735C5.89523 3.08557 5.04875 3.63695 4.35025 4.35025C3.63695 5.04875 3.08557 5.89523 2.735 6.83C2.3885 7.719 2.15225 8.7375 2.084 10.225C2.0175 11.7213 2 12.1973 2 16.0018C2 19.8028 2.0175 20.2787 2.084 21.7715C2.154 23.2625 2.3885 24.2792 2.735 25.17C3.09375 26.0905 3.5715 26.871 4.35025 27.6497C5.12725 28.4285 5.90775 28.908 6.82825 29.265C7.72075 29.6115 8.73575 29.8477 10.2268 29.916C11.7212 29.9825 12.1973 30 16 30C19.8027 30 20.277 29.9825 21.7715 29.916C23.2607 29.846 24.281 29.6115 25.1718 29.265C26.1059 28.9142 26.9518 28.3628 27.6497 27.6497C28.4285 26.871 28.9062 26.0905 29.265 25.17C29.6097 24.2792 29.846 23.2625 29.916 21.7715C29.9825 20.2787 30 19.8027 30 16C30 12.1973 29.9825 11.7212 29.916 10.2268C29.846 8.7375 29.6097 7.719 29.265 6.83C28.9144 5.89523 28.3631 5.04875 27.6497 4.35025C26.9513 3.63695 26.1048 3.08557 25.17 2.735C24.2775 2.3885 23.259 2.15225 21.7698 2.084C20.2752 2.0175 19.801 2 15.9965 2H16ZM14.7453 4.5235H16.0018C19.7397 4.5235 20.1825 4.53575 21.6577 4.604C23.0227 4.66525 23.7648 4.8945 24.2583 5.08525C24.911 5.339 25.3782 5.6435 25.8682 6.1335C26.3582 6.6235 26.661 7.089 26.9148 7.7435C27.1073 8.23525 27.3348 8.97725 27.396 10.3423C27.4643 11.8175 27.4782 12.2603 27.4782 15.9965C27.4782 19.7327 27.4643 20.1772 27.396 21.6525C27.3348 23.0175 27.1055 23.7578 26.9148 24.2513C26.6887 24.8583 26.3307 25.4076 25.8665 25.8595C25.3765 26.3495 24.911 26.6523 24.2565 26.906C23.7665 27.0985 23.0245 27.326 21.6577 27.389C20.1825 27.4555 19.7397 27.4713 16.0018 27.4713C12.2638 27.4713 11.8193 27.4555 10.344 27.389C8.979 27.326 8.23875 27.0985 7.74525 26.906C7.13771 26.6807 6.5878 26.3233 6.13525 25.8595C5.67023 25.4073 5.31157 24.8574 5.08525 24.2495C4.8945 23.7577 4.66525 23.0157 4.604 21.6507C4.5375 20.1755 4.5235 19.7327 4.5235 15.993C4.5235 12.2532 4.5375 11.814 4.604 10.3387C4.667 8.97375 4.8945 8.23175 5.087 7.73825C5.34075 7.0855 5.64525 6.61825 6.13525 6.12825C6.62525 5.63825 7.09075 5.3355 7.74525 5.08175C8.23875 4.88925 8.979 4.66175 10.344 4.59875C11.6355 4.53925 12.136 4.52175 14.7453 4.52V4.5235ZM23.4743 6.8475C23.2536 6.8475 23.0352 6.89095 22.8313 6.97538C22.6275 7.05981 22.4423 7.18356 22.2863 7.33956C22.1303 7.49556 22.0066 7.68076 21.9221 7.88459C21.8377 8.08842 21.7942 8.30688 21.7942 8.5275C21.7942 8.74812 21.8377 8.96658 21.9221 9.17041C22.0066 9.37424 22.1303 9.55944 22.2863 9.71544C22.4423 9.87144 22.6275 9.99519 22.8313 10.0796C23.0352 10.164 23.2536 10.2075 23.4743 10.2075C23.9198 10.2075 24.3471 10.0305 24.6622 9.71544C24.9772 9.40038 25.1542 8.97306 25.1542 8.5275C25.1542 8.08194 24.9772 7.65462 24.6622 7.33956C24.3471 7.0245 23.9198 6.8475 23.4743 6.8475ZM16.0018 8.811C15.0481 8.79612 14.1011 8.9711 13.2157 9.32575C12.3304 9.68039 11.5244 10.2076 10.8448 10.8767C10.1651 11.5459 9.62539 12.3435 9.25697 13.2232C8.88856 14.1029 8.69883 15.0471 8.69883 16.0009C8.69883 16.9546 8.88856 17.8988 9.25697 18.7785C9.62539 19.6583 10.1651 20.4559 10.8448 21.125C11.5244 21.7941 12.3304 22.3214 13.2157 22.676C14.1011 23.0306 15.0481 23.2056 16.0018 23.1908C17.8892 23.1613 19.6894 22.3908 21.0137 21.0457C22.338 19.7005 23.0803 17.8886 23.0803 16.0009C23.0803 14.1132 22.338 12.3012 21.0137 10.9561C19.6894 9.6109 17.8892 8.84045 16.0018 8.811ZM16.0018 11.3328C16.6147 11.3328 17.2216 11.4535 17.7878 11.688C18.3541 11.9226 18.8686 12.2664 19.302 12.6998C19.7354 13.1332 20.0792 13.6477 20.3137 14.2139C20.5483 14.7802 20.669 15.3871 20.669 16C20.669 16.6129 20.5483 17.2198 20.3137 17.7861C20.0792 18.3523 19.7354 18.8668 19.302 19.3002C18.8686 19.7336 18.3541 20.0774 17.7878 20.312C17.2216 20.5465 16.6147 20.6673 16.0018 20.6673C14.7639 20.6672 13.5768 20.1755 12.7015 19.3002C11.8262 18.425 11.3345 17.2378 11.3345 16C11.3345 14.7622 11.8262 13.575 12.7015 12.6998C13.5768 11.8245 14.7639 11.3328 16.0018 11.3328Z" fill="black"/>
</svg>
