<svg width="233" height="30" viewBox="0 0 233 30" fill="none" xmlns="http://www.w3.org/2000/svg">
<path d="M113.264 24.5595V20.2363H122.909C124.048 20.2363 124.808 19.6067 124.808 18.6623C124.808 17.7179 124.048 17.0883 122.909 17.0883H118.878C115.269 17.0883 112.863 14.7169 112.863 11.1702C112.863 7.70743 115.269 5.41992 118.878 5.41992H128.734V9.74311H119.954C118.814 9.74311 118.055 10.3727 118.055 11.3171C118.055 12.2615 118.814 12.8911 119.954 12.8911H123.373C127.362 12.8911 130 15.2625 130 18.8092C130 22.272 127.362 24.5595 123.373 24.5595H113.264Z" fill="black"/>
<path d="M91.7158 24.5803V10.1626C91.7158 7.05666 93.6152 5 96.4855 5C98.8281 5 100.875 6.55299 101.698 8.90346L105.392 19.4386H105.561V5.41973H110.752V19.8374C110.752 22.9433 108.853 25 105.983 25C103.64 25 101.593 23.447 100.77 21.0965L97.0764 10.5614H96.9076V24.5803H91.7158Z" fill="black"/>
<path d="M88.7698 13.5624V24.5593H83.578V20.2991H76.3179V24.5593H71.1261V13.5624C71.1261 8.50472 74.6928 5 79.948 5C85.2031 5 88.7698 8.50472 88.7698 13.5624ZM76.3179 15.9759H83.578V13.1427C83.578 11.149 82.2906 9.32319 79.948 9.32319C77.6053 9.32319 76.3179 11.149 76.3179 13.1427V15.9759Z" fill="black"/>
<path d="M52.2779 24.5595V20.2363H61.9228C63.0625 20.2363 63.8223 19.6067 63.8223 18.6623C63.8223 17.7179 63.0625 17.0883 61.9228 17.0883H57.8918C54.2829 17.0883 51.8769 14.7169 51.8769 11.1702C51.8769 7.70743 54.2829 5.41992 57.8918 5.41992H67.7478V9.74311H58.9682C57.8285 9.74311 57.0687 10.3727 57.0687 11.3171C57.0687 12.2615 57.8285 12.8911 58.9682 12.8911H62.3871C66.376 12.8911 69.0141 15.2625 69.0141 18.8092C69.0141 22.272 66.376 24.5595 62.3871 24.5595H52.2779Z" fill="black"/>
<path d="M44.9111 13.5624V24.5593H39.7193V20.2991H32.4592V24.5593H27.2674V13.5624C27.2674 8.50472 30.8341 5 36.0893 5C41.3444 5 44.9111 8.50472 44.9111 13.5624ZM32.4592 15.9759H39.7193V13.1427C39.7193 11.149 38.4319 9.32319 36.0893 9.32319C33.7466 9.32319 32.4592 11.149 32.4592 13.1427V15.9759Z" fill="black"/>
<path d="M24.3182 24.5595H19.1263V5.41992H24.3182V24.5595Z" fill="black"/>
<path d="M9.4339 19.3549H5.19181V24.5595H0V5.41992H10.4892C14.8368 5.41992 17.095 8.73577 17.095 12.3874C17.095 14.7589 16.1453 16.9834 14.288 18.2636L17.4327 24.5595H12.0931L9.4339 19.3549ZM5.19181 15.1156H9.26507C10.8479 15.1156 11.9032 14.0243 11.9032 12.3874C11.9032 10.7505 10.8479 9.65917 9.26507 9.65917H5.19181V15.1156Z" fill="black"/>
<path d="M138 0V30" stroke="black" stroke-width="2"/>
<path d="M212 20.8837H232.68V25.2837H212V20.8837ZM219.7 7.68373V5.21973H224.98V7.68373C224.98 11.6657 228.522 13.7337 232.68 13.8437V18.4637C228.5 18.2217 224.012 16.5717 222.34 13.8657C220.668 16.5717 216.18 18.2217 212 18.4637V13.8437C216.158 13.7337 219.7 11.6657 219.7 7.68373Z" fill="black"/>
<path d="M190.44 17.5837H195.5V19.5637C195.5 20.3557 196.028 20.8837 196.82 20.8837H209.58V25.2837H195.28C192.376 25.2837 190.44 23.3477 190.44 20.4437V17.5837ZM190.44 16.7037V12.0837C192.948 11.9517 194.334 9.86173 194.334 6.95773V5.21973H199.394V6.95773C199.394 9.86173 200.78 11.7317 203.288 11.8637V16.4837C200.714 16.3957 198.184 15.0097 196.864 12.9857C195.544 15.0097 193.014 16.6157 190.44 16.7037ZM204.3 18.6837V5.21973H209.36V8.62973H211.34V13.0297H209.36V18.6837H204.3Z" fill="black"/>
<path d="M168.44 19.454V11.05C168.44 7.42 170.706 5 174.622 5C178.538 5 180.804 7.42 180.804 11.05V19.454C180.804 23.084 178.538 25.504 174.622 25.504C170.706 25.504 168.44 23.084 168.44 19.454ZM182.3 25.284V5.22H187.36V12.502H189.34V16.902H187.36V25.284H182.3ZM174.622 21.104C175.282 21.104 175.744 20.664 175.744 19.894V10.61C175.744 9.84 175.282 9.4 174.622 9.4C173.962 9.4 173.5 9.84 173.5 10.61V19.894C173.5 20.664 173.962 21.104 174.622 21.104Z" fill="black"/>
<path d="M166.24 25.2837H151.368C148.134 25.2837 146 22.8857 146 19.2557C146 15.6257 148.134 13.2277 151.368 13.2277H152.182C153.37 13.2277 154.162 12.5017 154.162 11.4017C154.162 10.1917 153.37 9.39973 152.182 9.39973H146.44V5.21973H154.492C157.33 5.21973 159.222 7.61773 159.222 11.2477C159.222 14.8777 157.33 17.2757 154.492 17.2757H153.04C151.852 17.2757 151.06 18.0457 151.06 19.1897C151.06 20.3337 151.852 21.1037 153.04 21.1037H161.18V5.21973H166.24V25.2837Z" fill="black"/>
</svg>
