<svg width="189" height="40" viewBox="0 0 189 40" fill="none" xmlns="http://www.w3.org/2000/svg">
<g clip-path="url(#clip0_81_666)">
<path d="M18.891 0.66761C21.4015 0.305048 23.9779 0.903639 26.1542 2.17139C27.4449 2.91354 28.4354 4.05476 29.5065 5.06701C31.7901 7.16694 33.9298 9.41774 36.1402 11.5931C38.0677 13.457 39.4242 15.9438 39.7487 18.6253C40.2244 22.0417 38.9899 25.6065 36.5843 28.0592C34.1689 30.5558 31.6706 32.9745 29.2308 35.4516C27.5449 37.1622 25.5345 38.6538 23.163 39.2134C21.016 39.6952 18.6909 39.7658 16.6098 38.9579C14.6604 38.3375 12.9843 37.0867 11.557 35.6511C9.03668 33.1229 6.51151 30.5971 3.98389 28.0763C1.37576 25.4459 0.233942 21.521 0.926841 17.8905C1.38552 15.5472 2.63713 13.4059 4.3157 11.7269C6.775 9.26688 9.23674 6.81411 11.6887 4.34919C13.621 2.40742 16.1194 0.918239 18.891 0.66761ZM17.1002 8.56852C15.4631 9.92387 14.9263 12.1309 14.7287 14.1554C14.6628 17.0632 15.0288 19.9685 15.6119 22.813C16.2316 25.5116 17.1953 28.2636 19.1959 30.2662C20.3841 31.4683 22.1212 32.2299 23.8267 31.899C24.7586 31.8089 25.5931 31.3588 26.3543 30.8453C27.8181 29.7577 29.1429 28.4193 30.0261 26.8109C30.5141 25.8985 29.1649 24.9641 28.4696 25.6527C27.2204 27.12 26.1347 28.9255 24.2634 29.6774C23.102 30.2638 21.6552 29.8453 20.7964 28.9328C19.2838 27.5604 18.5543 25.5846 17.9614 23.6842C17.0514 20.4406 16.6512 17.0437 16.9099 13.6784C17.0441 12.4837 17.3515 11.2403 18.2176 10.3546C18.9129 9.7 19.962 9.6781 20.8452 9.87033C21.6016 10.0918 22.0798 10.8242 22.4067 11.4982C22.9947 12.9655 23.146 14.5763 23.0508 16.1434C22.9142 18.8735 22.5019 21.667 21.199 24.1075C20.8989 24.8035 20.267 25.4653 20.5085 26.2902C20.6769 26.8718 21.4113 26.9302 21.8773 27.081C24.4122 23.0637 25.4833 18.1581 24.988 13.4448C24.7684 11.8827 24.3414 10.2572 23.2484 9.06978C21.7114 7.3762 18.9105 7.27644 17.1002 8.56852ZM15.163 29.7528C14.6165 29.9183 14.1822 30.5193 14.3749 31.1106C14.4994 31.7481 15.224 32.1885 15.8559 31.9136C16.5878 31.7286 16.8074 30.7212 16.3975 30.1446C16.1072 29.7942 15.5973 29.6895 15.163 29.7528Z" fill="black"/>
<path d="M69.3701 12.8948C71.8562 12.6418 74.5254 13.0603 76.5455 14.62C78.2143 15.8732 79.239 17.9171 79.2512 20.0049C79.4391 22.0829 78.4778 24.1391 76.9773 25.5382C74.8133 27.5238 71.6049 27.9764 68.7943 27.5603C65.5762 27.1685 62.4972 24.6939 62.0947 21.3554C61.5359 18.3941 63.2121 15.2527 65.8666 13.8998C66.9474 13.3207 68.1575 13.0287 69.3701 12.8948ZM69.9044 14.6298C68.6528 14.8001 67.7062 15.8002 67.0694 16.8197C65.9032 18.7858 65.9495 21.3165 66.8815 23.3629C67.7159 25.1002 69.719 26.5115 71.6928 25.8375C74.5376 24.8204 75.6477 21.2775 74.8694 18.5401C74.4912 16.2893 72.3369 14.0433 69.9044 14.6298Z" fill="black"/>
<path d="M141.402 13.0531C143.181 12.8803 144.976 12.9241 146.765 12.9606C148.321 13.0141 149.805 13.7149 150.959 14.7393C151.735 15.4036 152.015 16.4183 152.391 17.3284C151.088 17.3381 149.79 17.3357 148.492 17.343C147.99 16.2601 147.504 14.9145 146.292 14.4644C145.403 14.0969 144.396 14.1067 143.459 14.1797C142.498 14.5495 141.661 15.2917 141.258 16.2504C140.033 18.5377 139.821 21.5039 141.317 23.7182C142.058 24.6745 143.042 25.767 144.371 25.7062C146.028 25.9739 147.302 24.6404 148.207 23.4481C148.519 22.8398 148.519 22.1268 148.675 21.4723C147.326 21.465 145.979 21.4577 144.635 21.4577C144.635 21.0951 144.635 20.3675 144.635 20.0026C146.894 20.0269 149.153 19.9296 151.413 20.0147C151.818 20.0342 152.213 20.3237 152.254 20.7471C152.45 22.8398 152.31 24.947 152.337 27.0469C151.095 27.0372 149.858 27.0372 148.622 27.0445C148.626 26.7184 148.636 26.0688 148.641 25.7427C147.841 26.5214 146.892 27.3511 145.696 27.2903C144.257 27.3024 142.742 27.4995 141.361 26.9958C138.989 26.0639 136.937 24.0905 136.33 21.5599C136.237 20.1218 136.047 18.5645 136.652 17.2067C137.118 16.0192 137.794 14.8172 138.926 14.1578C139.692 13.6833 140.502 13.2112 141.402 13.0531Z" fill="black"/>
<path d="M175.066 13.8997C177.567 12.5833 180.527 12.9386 183.249 13.0237C184.726 13.3765 186.328 13.9167 187.317 15.1407C187.507 15.6444 187.683 16.1578 187.848 16.6712C186.577 16.6712 185.311 16.6688 184.045 16.6639C183.74 15.8293 183.252 14.9874 182.366 14.6735C180.919 14.0992 179.177 14.0822 177.84 14.9509C177.211 15.2526 177.17 16.0678 177.196 16.6664C177.238 17.1433 177.767 17.282 178.128 17.4645C179.695 18.0996 181.422 17.9536 183.045 18.3672C184.918 18.7736 187.031 19.4841 187.946 21.3237C188.144 22.4114 188.28 23.6597 187.687 24.6573C187.309 25.5966 186.385 26.1319 185.592 26.6818C183.706 27.6697 181.488 27.4434 179.436 27.4507C177.648 27.5286 175.923 26.7791 174.527 25.7085C173.627 24.9225 173.171 23.7911 172.907 22.6547C174.169 22.6596 175.432 22.6644 176.696 22.6693C177.189 24.5989 179.202 25.9178 181.166 25.7401C182.374 25.981 183.742 25.4214 184.25 24.2704C184.547 23.5453 184.062 22.825 183.415 22.5379C181.222 21.4794 178.687 21.8274 176.425 21.0074C175.413 20.6813 174.386 20.2068 173.725 19.3406C172.663 17.5983 173.01 14.7489 175.066 13.8997Z" fill="black"/>
<path d="M49.52 13.3525C50.8911 13.3623 52.2647 13.3623 53.6383 13.3525C53.6383 16.455 53.6457 19.5574 53.6164 22.6599C53.6408 23.5553 53.5798 24.5068 53.958 25.3438C56.5075 25.2903 59.0571 25.3268 61.6067 25.3171C61.6042 25.8913 61.6067 26.468 61.6067 27.0447C58.0617 27.0179 54.5167 27.0836 50.9717 27.0398C50.1543 26.9863 49.3931 26.1663 49.5395 25.3171C49.4639 21.3289 49.5493 17.3407 49.52 13.3525Z" fill="black"/>
<path d="M79.9391 13.355C84.8552 13.355 89.7714 13.355 94.6851 13.355C94.6827 13.9317 94.6851 14.5059 94.6851 15.0826C93.0895 15.0826 91.4963 15.0851 89.9032 15.0851C89.9032 19.0732 89.9032 23.059 89.9032 27.0471C88.4417 27.0398 86.9803 27.035 85.5189 27.0471C85.5189 23.059 85.5189 19.0732 85.5189 15.0851C83.6597 15.0826 81.8006 15.0851 79.9391 15.0826C79.9366 14.5059 79.9391 13.9317 79.9391 13.355Z" fill="black"/>
<path d="M96.1466 13.355C101.063 13.355 105.976 13.355 110.893 13.355C110.888 13.9317 110.893 14.5059 110.893 15.0826C108.987 15.0826 107.084 15.0851 105.181 15.0826C105.181 19.0708 105.179 23.059 105.181 27.0471C103.764 27.0374 102.346 27.0374 100.929 27.0471C100.929 23.059 100.929 19.0708 100.929 15.0851C99.333 15.0851 97.7422 15.0826 96.1466 15.0826C96.1442 14.5059 96.1466 13.9317 96.1466 13.355Z" fill="black"/>
<path d="M114.533 13.4204C118.32 13.2501 122.113 13.4082 125.905 13.3547C125.9 13.9314 125.905 14.5081 125.905 15.0848C123.25 15.1188 120.596 15.002 117.949 15.1213C117.651 15.1407 117.363 15.3549 117.336 15.6663C117.231 16.754 117.258 17.8466 117.246 18.9391C120.088 18.9269 122.931 18.9464 125.771 18.9367C125.766 19.5134 125.771 20.0901 125.771 20.6667C122.936 20.6546 120.101 20.6716 117.263 20.6643C117.349 22.207 116.992 23.869 117.593 25.3435C120.362 25.2876 123.133 25.3289 125.905 25.3143C125.9 25.8886 125.905 26.4677 125.905 27.0444C122.138 27.0201 118.371 27.0809 114.604 27.0395C114.011 27.0176 113.481 26.5456 113.247 26.0249C113.052 24.47 113.164 22.8932 113.147 21.3286C113.184 19.1143 113.076 16.8976 113.179 14.6833C113.34 14.0652 113.835 13.4204 114.533 13.4204Z" fill="black"/>
<path d="M156.778 13.4277C159.413 13.255 162.055 13.3839 164.695 13.3523C166.322 13.3596 168.111 13.4326 169.497 14.3962C170.753 15.5593 170.86 17.6349 169.992 19.0632C169.609 19.9757 168.611 20.3261 167.789 20.73C168.274 21.0269 168.913 21.1924 169.189 21.7374C170.143 23.3507 169.787 25.3509 170.548 27.0371C169.077 27.0396 167.608 27.0371 166.139 27.0493C165.832 25.6088 165.837 24.0417 165.166 22.7059C163.951 21.0342 161.56 21.5476 159.781 21.4527C159.779 23.3166 159.779 25.1805 159.779 27.0469C158.405 27.0396 157.032 27.0371 155.661 27.0469C155.69 22.8348 155.607 18.6252 155.68 14.4156C155.687 13.8389 156.248 13.4691 156.778 13.4277ZM159.833 15.5203C159.711 16.8781 159.779 18.2481 159.772 19.6107C161.565 19.5304 163.48 19.8759 165.183 19.1557C166.452 18.4476 166.566 16.5959 165.705 15.5252C164.475 14.5933 162.807 14.878 161.374 14.8293C160.845 14.8536 159.976 14.839 159.833 15.5203Z" fill="black"/>
<path d="M17.1003 8.56835C18.9106 7.27627 21.7115 7.37603 23.2486 9.06961C24.3416 10.2571 24.7685 11.8825 24.9881 13.4447C25.4834 18.158 24.4123 23.0635 21.8774 27.0809C21.4114 26.93 20.677 26.8716 20.5087 26.29C20.2671 25.4652 20.899 24.8033 21.1991 24.1074C22.502 21.6668 22.9143 18.8734 23.0509 16.1432C23.1461 14.5762 22.9948 12.9653 22.4068 11.498C22.0799 10.824 21.6017 10.0916 20.8454 9.87016C19.9622 9.67793 18.9131 9.69983 18.2177 10.3544C17.3516 11.2401 17.0442 12.4835 16.91 13.6783C16.6514 17.0435 17.0515 20.4404 17.9615 23.684C18.5544 25.5844 19.2839 27.5602 20.7966 28.9326C21.6554 29.8451 23.1022 30.2636 24.2635 29.6772C26.1348 28.9253 27.2205 27.1198 28.4697 25.6525C29.165 24.9639 30.5142 25.8983 30.0263 26.8108C29.1431 28.4192 27.8183 29.7575 26.3544 30.8452C25.5932 31.3586 24.7588 31.8088 23.8268 31.8988C22.1214 32.2297 20.3842 31.4681 19.1961 30.266C17.1954 28.2634 16.2317 25.5114 15.612 22.8129C15.0289 19.9683 14.663 17.063 14.7288 14.1552C14.9264 12.1307 15.4632 9.92369 17.1003 8.56835Z" fill="white"/>
<path d="M15.1632 29.7527C15.5975 29.6895 16.1074 29.7941 16.3977 30.1445C16.8076 30.7212 16.588 31.7286 15.8561 31.9135C15.2242 32.1885 14.4995 31.748 14.3751 31.1105C14.1824 30.5192 14.6167 29.9182 15.1632 29.7527Z" fill="white"/>
</g>
<defs>
<clipPath id="clip0_81_666">
<rect width="188" height="40" fill="white" transform="translate(0.5)"/>
</clipPath>
</defs>
</svg>
