<svg width="131" height="40" viewBox="0 0 131 40" fill="none" xmlns="http://www.w3.org/2000/svg">
<g clip-path="url(#clip0_81_643)">
<mask id="mask0_81_643" style="mask-type:luminance" maskUnits="userSpaceOnUse" x="-22" y="-21" width="179" height="85">
<path d="M-21.4111 -20.0109H156.168V63.3569H-21.4111V-20.0109Z" fill="white"/>
</mask>
<g mask="url(#mask0_81_643)">
<path d="M73.0933 26.1478C70.425 26.1478 68.3923 23.4753 68.3923 20.1935C68.3923 16.9043 70.425 14.2404 73.0933 14.2404C75.7663 14.2404 77.7943 16.9043 77.7943 20.1935C77.7943 23.4753 75.7663 26.1478 73.0933 26.1478ZM73.0933 12.6061C67.5228 12.6061 64.188 16.0003 64.188 20.1935C64.188 24.3845 67.5228 27.7729 73.0933 27.7729C78.6638 27.7729 82.008 24.3845 82.008 20.1935C82.008 16.0003 78.6638 12.6061 73.0933 12.6061Z" fill="black"/>
<path d="M82.7627 14.8425H88.6304V27.1475H93.0516V14.8425H97.9987V13.1652H82.7627V14.8425Z" fill="black"/>
<path d="M99.6138 14.8425H104.558V27.1475H108.975V14.8425H114.846V13.1652H99.6138V14.8425Z" fill="black"/>
<path d="M55.3894 24.6424V13.1652H51.1501V25.4811C51.1501 26.4023 51.9051 27.1475 52.8385 27.1475H63.6811V25.473H56.2385C55.7721 25.473 55.3894 25.103 55.3894 24.6424Z" fill="black"/>
<path d="M122.341 14.8192H130.5V13.1648H118.937C118.004 13.1648 117.247 13.9054 117.247 14.8272V25.4807C117.247 26.402 118.004 27.146 118.937 27.146H130.5V25.4928H122.341C121.868 25.4928 121.498 25.1165 121.498 24.6627V20.5423H130.367V18.9006H121.498V15.6469C121.498 15.1903 121.868 14.8192 122.341 14.8192Z" fill="black"/>
<path d="M29.1265 36.6029C24.5343 41.1324 17.0201 41.1324 12.4279 36.6029L3.94419 28.2354C-0.648062 23.706 -0.648062 16.294 3.94419 11.7646L12.4279 3.39705C17.0201 -1.13235 24.5343 -1.13235 29.1265 3.39705L37.6102 11.7646C42.2025 16.294 42.2025 23.706 37.6102 28.2354L29.1265 36.6029Z" fill="black"/>
<path d="M15.7456 32.2915C15.071 32.2915 14.5214 31.7706 14.4935 31.1064C14.4801 30.776 14.597 30.4599 14.8238 30.2167C15.0506 29.9735 15.36 29.8318 15.695 29.8186C16.3854 29.7859 16.9716 30.3205 17.0007 31.0037C17.0292 31.6852 16.4901 32.2622 15.7991 32.2904C15.7811 32.2909 15.7637 32.2915 15.7456 32.2915Z" fill="white"/>
<path d="M20.3105 9.4503C19.6219 9.4503 19.0706 9.66254 18.6251 10.0997C17.6631 11.0427 17.1583 12.9896 17.2031 15.5807C17.2572 18.7753 18.0289 25.0428 20.5763 28.27C20.9892 28.7921 21.433 29.2097 21.8959 29.5108C22.3443 29.8039 22.848 30.089 23.6337 30.089C23.8466 30.089 24.0757 30.0678 24.3142 30.0254C25.7751 29.68 27.6048 28.0762 28.9658 25.9417C29.1734 25.6164 29.5299 25.4225 29.9196 25.4225C30.1307 25.4225 30.3372 25.481 30.5169 25.5929C30.7716 25.7507 30.9484 25.9967 31.0153 26.2859C31.0822 26.5755 31.031 26.8727 30.8705 27.1228C29.1495 29.8223 26.8778 31.7182 24.7928 32.1937C24.7859 32.1966 24.7632 32.2012 24.7411 32.2052C24.3584 32.274 23.9827 32.3096 23.625 32.3096C22.2804 32.3096 21.3318 31.8042 20.656 31.3642C19.9877 30.9283 19.3637 30.346 18.8007 29.6341C15.2146 25.0915 14.9692 16.5748 14.9529 15.6186C14.9139 13.3521 15.2448 10.2815 17.0396 8.52446C17.9155 7.66745 19.013 7.23263 20.3012 7.23263L20.5106 7.23321C21.8023 7.23321 22.9009 7.66745 23.7762 8.52446C25.571 10.2815 25.9019 13.3521 25.8636 15.6186C25.8228 17.9802 25.3837 22.5538 22.9015 26.6547C22.6991 26.988 22.3286 27.1951 21.9343 27.1951C21.7313 27.1951 21.5324 27.1406 21.3585 27.0385C20.827 26.7253 20.6519 26.0421 20.9689 25.516C22.7067 22.6467 23.5465 19.4894 23.6128 15.5807C23.6576 12.9885 23.1522 11.0421 22.1902 10.0997C21.7447 9.66254 21.1945 9.4503 20.5083 9.4503H20.3105Z" fill="white"/>
</g>
</g>
<defs>
<clipPath id="clip0_81_643">
<rect width="130" height="40" fill="white" transform="translate(0.5)"/>
</clipPath>
</defs>
</svg>
