<svg width="163" height="24" viewBox="0 0 163 24" fill="none" xmlns="http://www.w3.org/2000/svg">
<g id="Logo" clip-path="url(#clip0_76_1156)">
<g id="Group 1">
<g id="Group">
<path id="Vector" d="M156.306 1.01367H159.157V1.48753H156.306V1.01367ZM157.442 1.2506H158.021V3.91784H157.442V1.2506Z" fill="black"/>
<path id="Vector_2" d="M159.614 1.01367H160.496L161.21 2.72243C161.282 2.89474 161.335 3.06346 161.375 3.22141H161.246L161.264 3.14603C161.307 2.96295 161.35 2.82294 161.389 2.72602L162.103 1.01367H163.004V3.91425H162.436V1.76036C162.436 1.68138 162.436 1.59522 162.436 1.50189C162.436 1.40496 162.443 1.30445 162.453 1.19675H162.529L161.407 3.91784H161.146L160.032 1.19675H160.103C160.117 1.32958 160.128 1.44445 160.132 1.54856C160.139 1.65266 160.139 1.75677 160.139 1.86446V3.91784H159.614V1.01367Z" fill="black"/>
</g>
<g id="Group_2">
<path id="Vector_3" d="M135.317 1.01367H129.005V22.987H135.317V1.01367Z" fill="black"/>
<path id="Vector_4" d="M75.7045 22.987H69.3499V6.27994H62.8025V1.01367H82.6805V6.27994H75.7045V22.987Z" fill="black"/>
<path id="Vector_5" d="M88.1814 22.987H103.148V18.1228H90.7139V14.357H101.905V9.65797H90.7139V5.87788H103.148V1.01367H84.6023V19.39C84.6023 21.3716 86.2096 22.987 88.1814 22.987Z" fill="black"/>
<path id="Vector_6" d="M48.2931 22.987H54.6477V6.27994H61.1951V1.01367H41.317V6.27994H48.2931V22.987Z" fill="black"/>
<path id="Vector_7" d="M17.9385 17.7207H6.31168V1.01367H0V19.39C0 21.3716 1.60739 22.987 3.57912 22.987H17.9385V17.7207Z" fill="black"/>
</g>
<path id="Vector_8" d="M29.5974 0.5C22.8249 0.5 17.9242 5.50062 17.9242 12.0018C17.9242 18.503 22.8285 23.5036 29.5974 23.5036C36.3663 23.5036 41.3206 18.503 41.3206 12.0018C41.3206 5.50062 36.3663 0.5 29.5974 0.5ZM29.601 17.9788C26.104 17.9788 23.818 15.3619 23.818 12.0054C23.818 8.6489 26.104 6.02474 29.601 6.02474C33.098 6.02474 35.3733 8.64531 35.3733 12.0054C35.3733 15.3655 33.0908 17.9788 29.601 17.9788Z" fill="black"/>
<path id="Vector_9" d="M126.477 22.9798L122.712 15.9402C124.912 14.5186 126.076 11.9734 126.076 9.07642C126.076 4.63221 123.337 1.01367 118.168 1.01367H105.813V22.9762H111.806V17.1356H117.093L120.283 22.9762H126.48L126.477 22.9798ZM111.803 5.93532H117.154C119.215 5.93532 120.318 7.29227 120.318 9.07642C120.318 10.8606 119.161 12.2175 117.154 12.2175H111.803V5.93532Z" fill="black"/>
<path id="Vector_10" d="M156.792 22.987H162.996L153.406 1.01367H145.287L137.775 17.9648C136.728 20.3233 138.446 22.9834 141.018 22.9834H154.095L151.763 17.7171H144.233L149.344 6.17584L156.792 22.9834V22.987Z" fill="black"/>
</g>
</g>
<defs>
<clipPath id="clip0_76_1156">
<rect width="163" height="23" fill="white" transform="translate(0 0.5)"/>
</clipPath>
</defs>
</svg>
