<svg width="111" height="194" viewBox="0 0 111 194" fill="none" xmlns="http://www.w3.org/2000/svg">
<circle cx="2.63884" cy="-0.152665" r="2.63884" fill="#EEEEEE"/>
<circle cx="29.1271" cy="-0.152665" r="2.63884" fill="#EEEEEE"/>
<circle cx="55.6115" cy="-0.152665" r="2.63884" fill="#EEEEEE"/>
<circle cx="82.0959" cy="-0.152665" r="2.63884" fill="#EEEEEE"/>
<circle cx="108.584" cy="-0.152665" r="2.63884" fill="#EEEEEE"/>
<circle cx="2.63884" cy="21.0556" r="2.63884" fill="#EEEEEE"/>
<circle cx="29.1271" cy="21.0556" r="2.63884" fill="#EEEEEE"/>
<circle cx="55.6115" cy="21.0556" r="2.63884" fill="#EEEEEE"/>
<circle cx="82.0959" cy="21.0558" r="2.63884" fill="#EEEEEE"/>
<circle cx="108.584" cy="21.0556" r="2.63884" fill="#EEEEEE"/>
<circle cx="2.63884" cy="42.2643" r="2.63884" fill="#EEEEEE"/>
<circle cx="29.1271" cy="42.2643" r="2.63884" fill="#EEEEEE"/>
<circle cx="55.6115" cy="42.2643" r="2.63884" fill="#EEEEEE"/>
<circle cx="82.0959" cy="42.2643" r="2.63884" fill="#EEEEEE"/>
<circle cx="108.584" cy="42.2643" r="2.63884" fill="#EEEEEE"/>
<circle cx="2.63884" cy="63.4726" r="2.63884" fill="#EEEEEE"/>
<circle cx="29.1271" cy="63.4726" r="2.63884" fill="#EEEEEE"/>
<circle cx="55.6115" cy="63.4726" r="2.63884" fill="#EEEEEE"/>
<circle cx="82.0959" cy="63.4728" r="2.63884" fill="#EEEEEE"/>
<circle cx="108.584" cy="63.4726" r="2.63884" fill="#EEEEEE"/>
<circle cx="2.63884" cy="84.6813" r="2.63884" fill="#EEEEEE"/>
<circle cx="29.1271" cy="84.6813" r="2.63884" fill="#EEEEEE"/>
<circle cx="55.6115" cy="84.6813" r="2.63884" fill="#EEEEEE"/>
<circle cx="82.0959" cy="84.6813" r="2.63884" fill="#EEEEEE"/>
<circle cx="108.584" cy="84.6813" r="2.63884" fill="#EEEEEE"/>
<circle cx="2.63884" cy="105.889" r="2.63884" fill="#EEEEEE"/>
<circle cx="29.1271" cy="105.889" r="2.63884" fill="#EEEEEE"/>
<circle cx="55.6115" cy="105.889" r="2.63884" fill="#EEEEEE"/>
<circle cx="82.0959" cy="105.889" r="2.63884" fill="#EEEEEE"/>
<circle cx="108.584" cy="105.889" r="2.63884" fill="#EEEEEE"/>
<circle cx="2.63884" cy="127.098" r="2.63884" fill="#EEEEEE"/>
<circle cx="29.1271" cy="127.098" r="2.63884" fill="#EEEEEE"/>
<circle cx="55.6115" cy="127.098" r="2.63884" fill="#EEEEEE"/>
<circle cx="82.0959" cy="127.098" r="2.63884" fill="#EEEEEE"/>
<circle cx="108.584" cy="127.098" r="2.63884" fill="#EEEEEE"/>
<circle cx="2.63884" cy="148.306" r="2.63884" fill="#EEEEEE"/>
<circle cx="29.1271" cy="148.306" r="2.63884" fill="#EEEEEE"/>
<circle cx="55.6115" cy="148.306" r="2.63884" fill="#EEEEEE"/>
<circle cx="82.0959" cy="148.306" r="2.63884" fill="#EEEEEE"/>
<circle cx="108.584" cy="148.306" r="2.63884" fill="#EEEEEE"/>
<circle cx="2.63884" cy="169.515" r="2.63884" fill="#EEEEEE"/>
<circle cx="29.1271" cy="169.515" r="2.63884" fill="#EEEEEE"/>
<circle cx="55.6115" cy="169.515" r="2.63884" fill="#EEEEEE"/>
<circle cx="82.0959" cy="169.515" r="2.63884" fill="#EEEEEE"/>
<circle cx="108.584" cy="169.515" r="2.63884" fill="#EEEEEE"/>
<circle cx="2.63884" cy="190.723" r="2.63884" fill="#EEEEEE"/>
<circle cx="29.1271" cy="190.723" r="2.63884" fill="#EEEEEE"/>
<circle cx="55.6115" cy="190.723" r="2.63884" fill="#EEEEEE"/>
<circle cx="82.0959" cy="190.723" r="2.63884" fill="#EEEEEE"/>
<circle cx="108.584" cy="190.723" r="2.63884" fill="#EEEEEE"/>
</svg>
