<svg width="218" height="218" viewBox="0 0 218 218" fill="none" xmlns="http://www.w3.org/2000/svg">
<circle cx="2.63884" cy="2.63884" r="2.63884" fill="#EEEEEE"/>
<circle cx="29.1271" cy="2.63884" r="2.63884" fill="#EEEEEE"/>
<circle cx="55.6115" cy="2.63884" r="2.63884" fill="#EEEEEE"/>
<circle cx="82.0959" cy="2.63884" r="2.63884" fill="#EEEEEE"/>
<circle cx="108.584" cy="2.63884" r="2.63884" fill="#EEEEEE"/>
<circle cx="135.069" cy="2.63884" r="2.63884" fill="#EEEEEE"/>
<circle cx="161.557" cy="2.63884" r="2.63884" fill="#EEEEEE"/>
<circle cx="188.041" cy="2.63884" r="2.63884" fill="#EEEEEE"/>
<circle cx="214.529" cy="2.63884" r="2.63884" fill="#EEEEEE"/>
<circle cx="2.63884" cy="23.8473" r="2.63884" fill="#EEEEEE"/>
<circle cx="29.1271" cy="23.8473" r="2.63884" fill="#EEEEEE"/>
<circle cx="55.6115" cy="23.8473" r="2.63884" fill="#EEEEEE"/>
<circle cx="82.0959" cy="23.8473" r="2.63884" fill="#EEEEEE"/>
<circle cx="108.584" cy="23.8473" r="2.63884" fill="#EEEEEE"/>
<circle cx="135.069" cy="23.8473" r="2.63884" fill="#EEEEEE"/>
<circle cx="161.557" cy="23.8473" r="2.63884" fill="#EEEEEE"/>
<circle cx="188.041" cy="23.8473" r="2.63884" fill="#EEEEEE"/>
<circle cx="214.529" cy="23.8473" r="2.63884" fill="#EEEEEE"/>
<circle cx="2.63884" cy="45.0556" r="2.63884" fill="#EEEEEE"/>
<circle cx="29.1271" cy="45.0556" r="2.63884" fill="#EEEEEE"/>
<circle cx="55.6115" cy="45.0556" r="2.63884" fill="#EEEEEE"/>
<circle cx="82.0959" cy="45.0558" r="2.63884" fill="#EEEEEE"/>
<circle cx="108.584" cy="45.0556" r="2.63884" fill="#EEEEEE"/>
<circle cx="135.069" cy="45.0558" r="2.63884" fill="#EEEEEE"/>
<circle cx="161.557" cy="45.0558" r="2.63884" fill="#EEEEEE"/>
<circle cx="188.041" cy="45.0556" r="2.63884" fill="#EEEEEE"/>
<circle cx="214.529" cy="45.0558" r="2.63884" fill="#EEEEEE"/>
<circle cx="2.63884" cy="66.2643" r="2.63884" fill="#EEEEEE"/>
<circle cx="29.1271" cy="66.2643" r="2.63884" fill="#EEEEEE"/>
<circle cx="55.6115" cy="66.2643" r="2.63884" fill="#EEEEEE"/>
<circle cx="82.0959" cy="66.2643" r="2.63884" fill="#EEEEEE"/>
<circle cx="108.584" cy="66.2643" r="2.63884" fill="#EEEEEE"/>
<circle cx="135.069" cy="66.2643" r="2.63884" fill="#EEEEEE"/>
<circle cx="161.557" cy="66.2643" r="2.63884" fill="#EEEEEE"/>
<circle cx="188.041" cy="66.2643" r="2.63884" fill="#EEEEEE"/>
<circle cx="214.529" cy="66.2643" r="2.63884" fill="#EEEEEE"/>
<circle cx="2.63884" cy="87.4726" r="2.63884" fill="#EEEEEE"/>
<circle cx="29.1271" cy="87.4726" r="2.63884" fill="#EEEEEE"/>
<circle cx="55.6115" cy="87.4726" r="2.63884" fill="#EEEEEE"/>
<circle cx="82.0959" cy="87.4728" r="2.63884" fill="#EEEEEE"/>
<circle cx="108.584" cy="87.4726" r="2.63884" fill="#EEEEEE"/>
<circle cx="135.069" cy="87.4728" r="2.63884" fill="#EEEEEE"/>
<circle cx="161.557" cy="87.4728" r="2.63884" fill="#EEEEEE"/>
<circle cx="188.041" cy="87.4726" r="2.63884" fill="#EEEEEE"/>
<circle cx="214.529" cy="87.4728" r="2.63884" fill="#EEEEEE"/>
<circle cx="2.63884" cy="108.681" r="2.63884" fill="#EEEEEE"/>
<circle cx="29.1271" cy="108.681" r="2.63884" fill="#EEEEEE"/>
<circle cx="55.6115" cy="108.681" r="2.63884" fill="#EEEEEE"/>
<circle cx="82.0959" cy="108.681" r="2.63884" fill="#EEEEEE"/>
<circle cx="108.584" cy="108.681" r="2.63884" fill="#EEEEEE"/>
<circle cx="135.069" cy="108.681" r="2.63884" fill="#EEEEEE"/>
<circle cx="161.557" cy="108.681" r="2.63884" fill="#EEEEEE"/>
<circle cx="188.041" cy="108.681" r="2.63884" fill="#EEEEEE"/>
<circle cx="214.529" cy="108.681" r="2.63884" fill="#EEEEEE"/>
<circle cx="2.63884" cy="129.889" r="2.63884" fill="#EEEEEE"/>
<circle cx="29.1271" cy="129.889" r="2.63884" fill="#EEEEEE"/>
<circle cx="55.6115" cy="129.889" r="2.63884" fill="#EEEEEE"/>
<circle cx="82.0959" cy="129.889" r="2.63884" fill="#EEEEEE"/>
<circle cx="108.584" cy="129.889" r="2.63884" fill="#EEEEEE"/>
<circle cx="135.069" cy="129.889" r="2.63884" fill="#EEEEEE"/>
<circle cx="161.557" cy="129.889" r="2.63884" fill="#EEEEEE"/>
<circle cx="188.041" cy="129.889" r="2.63884" fill="#EEEEEE"/>
<circle cx="214.529" cy="129.889" r="2.63884" fill="#EEEEEE"/>
<circle cx="2.63884" cy="151.098" r="2.63884" fill="#EEEEEE"/>
<circle cx="29.1271" cy="151.098" r="2.63884" fill="#EEEEEE"/>
<circle cx="55.6115" cy="151.098" r="2.63884" fill="#EEEEEE"/>
<circle cx="82.0959" cy="151.098" r="2.63884" fill="#EEEEEE"/>
<circle cx="108.584" cy="151.098" r="2.63884" fill="#EEEEEE"/>
<circle cx="135.069" cy="151.098" r="2.63884" fill="#EEEEEE"/>
<circle cx="161.557" cy="151.098" r="2.63884" fill="#EEEEEE"/>
<circle cx="188.041" cy="151.098" r="2.63884" fill="#EEEEEE"/>
<circle cx="214.529" cy="151.098" r="2.63884" fill="#EEEEEE"/>
<circle cx="2.63884" cy="172.306" r="2.63884" fill="#EEEEEE"/>
<circle cx="29.1271" cy="172.306" r="2.63884" fill="#EEEEEE"/>
<circle cx="55.6115" cy="172.306" r="2.63884" fill="#EEEEEE"/>
<circle cx="82.0959" cy="172.306" r="2.63884" fill="#EEEEEE"/>
<circle cx="108.584" cy="172.306" r="2.63884" fill="#EEEEEE"/>
<circle cx="135.069" cy="172.306" r="2.63884" fill="#EEEEEE"/>
<circle cx="161.557" cy="172.306" r="2.63884" fill="#EEEEEE"/>
<circle cx="188.041" cy="172.306" r="2.63884" fill="#EEEEEE"/>
<circle cx="214.529" cy="172.306" r="2.63884" fill="#EEEEEE"/>
<circle cx="2.63884" cy="193.515" r="2.63884" fill="#EEEEEE"/>
<circle cx="29.1271" cy="193.515" r="2.63884" fill="#EEEEEE"/>
<circle cx="55.6115" cy="193.515" r="2.63884" fill="#EEEEEE"/>
<circle cx="82.0959" cy="193.515" r="2.63884" fill="#EEEEEE"/>
<circle cx="108.584" cy="193.515" r="2.63884" fill="#EEEEEE"/>
<circle cx="135.069" cy="193.515" r="2.63884" fill="#EEEEEE"/>
<circle cx="161.557" cy="193.515" r="2.63884" fill="#EEEEEE"/>
<circle cx="188.041" cy="193.515" r="2.63884" fill="#EEEEEE"/>
<circle cx="214.529" cy="193.515" r="2.63884" fill="#EEEEEE"/>
<circle cx="2.63884" cy="214.723" r="2.63884" fill="#EEEEEE"/>
<circle cx="29.1271" cy="214.723" r="2.63884" fill="#EEEEEE"/>
<circle cx="55.6115" cy="214.723" r="2.63884" fill="#EEEEEE"/>
<circle cx="82.0959" cy="214.723" r="2.63884" fill="#EEEEEE"/>
<circle cx="108.584" cy="214.723" r="2.63884" fill="#EEEEEE"/>
<circle cx="135.069" cy="214.723" r="2.63884" fill="#EEEEEE"/>
<circle cx="161.557" cy="214.723" r="2.63884" fill="#EEEEEE"/>
<circle cx="188.041" cy="214.723" r="2.63884" fill="#EEEEEE"/>
<circle cx="214.529" cy="214.723" r="2.63884" fill="#EEEEEE"/>
</svg>
