<svg width="28" height="28" viewBox="0 0 28 28" fill="none" xmlns="http://www.w3.org/2000/svg">
<mask id="mask0_82_2342" style="mask-type:alpha" maskUnits="userSpaceOnUse" x="0" y="0" width="28" height="28">
<rect width="28" height="28" fill="#D9D9D9"/>
</mask>
<g mask="url(#mask0_82_2342)">
<path d="M14.699 14.0003L10.149 9.45026C9.93507 9.23637 9.82812 8.96415 9.82812 8.63359C9.82812 8.30304 9.93507 8.03082 10.149 7.81693C10.3628 7.60304 10.6351 7.49609 10.9656 7.49609C11.2962 7.49609 11.5684 7.60304 11.7823 7.81693L17.149 13.1836C17.2656 13.3003 17.3483 13.4266 17.3969 13.5628C17.4455 13.6989 17.4698 13.8447 17.4698 14.0003C17.4698 14.1558 17.4455 14.3016 17.3969 14.4378C17.3483 14.5739 17.2656 14.7003 17.149 14.8169L11.7823 20.1836C11.5684 20.3975 11.2962 20.5044 10.9656 20.5044C10.6351 20.5044 10.3628 20.3975 10.149 20.1836C9.93507 19.9697 9.82812 19.6975 9.82812 19.3669C9.82812 19.0364 9.93507 18.7641 10.149 18.5503L14.699 14.0003Z" fill="#25262C"/>
</g>
</svg>
