<svg width="28" height="28" viewBox="0 0 28 28" fill="none" xmlns="http://www.w3.org/2000/svg">
<mask id="mask0_82_2337" style="mask-type:alpha" maskUnits="userSpaceOnUse" x="0" y="0" width="28" height="28">
<rect width="28" height="28" fill="#D9D9D9"/>
</mask>
<g mask="url(#mask0_82_2337)">
<path d="M12.599 14.0003L17.149 18.5503C17.3628 18.7641 17.4698 19.0364 17.4698 19.3669C17.4698 19.6975 17.3628 19.9697 17.149 20.1836C16.9351 20.3975 16.6628 20.5044 16.3323 20.5044C16.0017 20.5044 15.7295 20.3975 15.5156 20.1836L10.149 14.8169C10.0323 14.7003 9.94965 14.5739 9.90104 14.4378C9.85243 14.3016 9.82812 14.1558 9.82812 14.0003C9.82812 13.8447 9.85243 13.6989 9.90104 13.5628C9.94965 13.4266 10.0323 13.3003 10.149 13.1836L15.5156 7.81693C15.7295 7.60304 16.0017 7.49609 16.3323 7.49609C16.6628 7.49609 16.9351 7.60304 17.149 7.81693C17.3628 8.03082 17.4698 8.30304 17.4698 8.63359C17.4698 8.96415 17.3628 9.23637 17.149 9.45026L12.599 14.0003Z" fill="#25262C"/>
</g>
</svg>
