<svg width="490" height="437" viewBox="0 0 490 437" fill="none" xmlns="http://www.w3.org/2000/svg">
<mask id="mask0_601_642" style="mask-type:luminance" maskUnits="userSpaceOnUse" x="58" y="10" width="385" height="413">
<path d="M442.75 10H58.75V422.798H442.75V10Z" fill="white"/>
</mask>
<g mask="url(#mask0_601_642)">
<path fill-rule="evenodd" clip-rule="evenodd" d="M152.343 242.266C159.853 243.783 167.621 244.58 175.573 244.58V244.553C237.952 244.553 289.07 195.518 292.239 134.056C352.954 142.149 399.942 194.186 399.942 256.936C399.942 325.278 344.209 380.884 275.71 380.884C207.211 380.884 151.478 325.304 151.478 256.936C151.478 251.973 151.772 247.078 152.343 242.266ZM113.681 226.841C80.7144 206.211 58.75 169.62 58.75 127.998C58.75 63.7043 111.158 11.4436 175.573 11.4436C227.724 11.4436 272.004 45.7169 286.976 92.8722C372.604 98.6683 440.506 170.035 440.506 256.936C440.506 347.617 366.571 421.354 275.71 421.354C184.849 421.354 110.915 347.59 110.915 256.936C110.915 246.661 111.864 236.602 113.681 226.841ZM126.829 186.469C110.025 172.502 99.3133 151.476 99.3133 127.998C99.3133 86.0438 133.522 51.9139 175.573 51.9139C205.958 51.9139 232.25 69.7348 244.498 95.4519C192.44 105.454 149.018 139.987 126.829 186.469ZM163.776 203.173C180.492 168.654 212.781 142.993 251.481 135.33C247.772 173.856 215.144 204.082 175.573 204.082C171.562 204.082 167.622 203.771 163.776 203.173Z" fill="url(#paint0_linear_601_642)"/>
<path fill-rule="evenodd" clip-rule="evenodd" d="M150.694 14.1406C98.1898 25.5472 58.75 72.2836 58.75 128.034C58.75 169.638 80.7354 206.223 113.727 226.836C116.377 212.671 120.812 199.128 126.842 186.474C110.049 172.499 99.3403 151.481 99.3403 128.008L99.3133 128.034C99.3133 94.768 120.822 66.4206 150.694 56.1073V14.1406Z" fill="url(#paint1_linear_601_642)"/>
<path d="M251.527 135.244C247.823 173.772 215.184 203.99 175.62 203.99C171.591 203.99 167.643 203.665 163.803 203.072C157.962 215.132 154.04 228.3 152.391 242.14C159.908 243.651 167.67 244.46 175.62 244.46C237.979 244.46 289.089 195.464 292.28 134.002C286.872 133.275 281.355 132.869 275.731 132.869C267.456 132.869 259.343 133.706 251.527 135.244Z" fill="url(#paint2_linear_601_642)"/>
<path d="M251.047 135.745C251.289 133.316 251.398 130.889 251.398 128.407C251.398 116.778 248.775 105.77 244.07 95.8953C192.013 105.878 148.583 140.386 126.382 186.873C136.739 195.479 149.422 201.415 163.322 203.573C180.033 169.066 212.349 143.408 251.047 135.745Z" fill="url(#paint3_linear_601_642)"/>
<mask id="mask1_601_642" style="mask-type:luminance" maskUnits="userSpaceOnUse" x="285" y="92" width="156" height="136">
<path d="M440.047 92.2905H285.906V227.192H440.047V92.2905Z" fill="white"/>
</mask>
<g mask="url(#mask1_601_642)">
<path fill-rule="evenodd" clip-rule="evenodd" d="M285.906 420.378V379.794C349.41 374.358 399.429 321.045 399.429 256.303C399.429 193.547 352.458 141.557 291.746 133.463C291.854 131.439 291.908 129.415 291.908 127.365C291.908 115.143 290.015 103.353 286.5 92.2905C372.117 98.1182 439.993 165.65 439.993 256.303C439.993 343.369 371.799 414.853 285.906 420.378Z" fill="url(#paint4_linear_601_642)"/>
</g>
</g>
<path opacity="0.6" d="M309.517 303.52C259.79 340.052 208.454 364.446 165.682 374.381C144.295 379.349 125.098 380.69 109.335 378.162C93.5787 375.635 81.3245 369.256 73.6727 358.841C66.021 348.426 63.5975 334.825 65.8961 319.034C68.1956 303.236 75.2142 285.318 86.3486 266.393C108.615 228.548 147.241 186.851 196.968 150.319C246.694 113.787 298.031 89.3932 340.802 79.4581C362.19 74.4902 381.387 73.149 397.149 75.6772C412.906 78.2044 425.16 84.5828 432.812 94.9983C440.464 105.414 442.887 119.014 440.588 134.806C438.289 150.603 431.27 168.521 420.136 187.446C397.869 225.291 359.244 266.988 309.517 303.52Z" stroke="url(#paint5_linear_601_642)" stroke-width="2"/>
<path opacity="0.6" d="M293.517 286.52C243.79 323.052 192.454 347.446 149.682 357.381C128.295 362.349 109.098 363.69 93.3351 361.162C77.5787 358.635 65.3245 352.256 57.6727 341.841C50.021 331.426 47.5975 317.825 49.8961 302.034C52.1956 286.236 59.2142 268.318 70.3486 249.393C92.6155 211.548 131.241 169.851 180.968 133.319C230.694 96.7874 282.031 72.3932 324.802 62.4581C346.19 57.4902 365.387 56.149 381.149 58.6772C396.906 61.2044 409.16 67.5828 416.812 77.9983C424.464 88.4137 426.887 102.014 424.588 117.806C422.289 133.603 415.27 151.521 404.136 170.446C381.869 208.291 343.244 249.988 293.517 286.52Z" stroke="url(#paint6_linear_601_642)" stroke-width="2"/>
<defs>
<linearGradient id="paint0_linear_601_642" x1="99.3133" y1="34.3768" x2="373.002" y2="389.775" gradientUnits="userSpaceOnUse">
<stop stop-color="#00D9FF"/>
<stop offset="1" stop-color="#E14AFF"/>
</linearGradient>
<linearGradient id="paint1_linear_601_642" x1="99.3133" y1="42.5076" x2="172.577" y2="226.953" gradientUnits="userSpaceOnUse">
<stop offset="0.325" stop-color="#004096" stop-opacity="0"/>
<stop offset="1" stop-color="#004096"/>
</linearGradient>
<linearGradient id="paint2_linear_601_642" x1="262.92" y1="193.346" x2="158.874" y2="222.596" gradientUnits="userSpaceOnUse">
<stop stop-color="#004096" stop-opacity="0"/>
<stop offset="0.685" stop-color="#004096" stop-opacity="0.5"/>
</linearGradient>
<linearGradient id="paint3_linear_601_642" x1="204.529" y1="134.586" x2="251.339" y2="105.964" gradientUnits="userSpaceOnUse">
<stop stop-color="#004096" stop-opacity="0"/>
<stop offset="1" stop-color="#004096" stop-opacity="0.5"/>
</linearGradient>
<linearGradient id="paint4_linear_601_642" x1="369.121" y1="146.38" x2="291.598" y2="112.462" gradientUnits="userSpaceOnUse">
<stop stop-color="#004096" stop-opacity="0"/>
<stop offset="1" stop-color="#004096" stop-opacity="0.5"/>
</linearGradient>
<linearGradient id="paint5_linear_601_642" x1="328.399" y1="292.628" x2="195.444" y2="140.384" gradientUnits="userSpaceOnUse">
<stop stop-color="#00D9FF"/>
<stop offset="0.51" stop-color="#C8A6FF"/>
<stop offset="1" stop-color="#999999" stop-opacity="0"/>
</linearGradient>
<linearGradient id="paint6_linear_601_642" x1="312.399" y1="275.628" x2="179.444" y2="123.384" gradientUnits="userSpaceOnUse">
<stop stop-color="#00D9FF"/>
<stop offset="0.51" stop-color="#C8A6FF"/>
<stop offset="1" stop-color="#999999" stop-opacity="0"/>
</linearGradient>
</defs>
</svg>
