<svg width="132" height="44" viewBox="0 0 132 44" fill="none" xmlns="http://www.w3.org/2000/svg">
<g clip-path="url(#clip0_639_2194)">
<mask id="mask0_639_2194" style="mask-type:luminance" maskUnits="userSpaceOnUse" x="0" y="2" width="39" height="41">
<path d="M38.046 2H0V42.7197H38.046V2Z" fill="white"/>
</mask>
<g mask="url(#mask0_639_2194)">
<path fill-rule="evenodd" clip-rule="evenodd" d="M9.27297 24.9116C10.0171 25.0612 10.7867 25.1399 11.5746 25.1399V25.1372C17.7549 25.1372 22.8197 20.3002 23.1336 14.2373C29.1491 15.0357 33.8045 20.1688 33.8045 26.3588C33.8045 33.1001 28.2826 38.5855 21.496 38.5855C14.7093 38.5855 9.1873 33.1028 9.1873 26.3588C9.1873 25.8692 9.2164 25.3863 9.27297 24.9116ZM5.44249 23.39C2.17618 21.355 0 17.7456 0 13.6398C0 7.29764 5.19248 2.14246 11.5746 2.14246C16.7416 2.14246 21.1287 5.5233 22.6121 10.1749C31.0961 10.7466 37.8236 17.7864 37.8236 26.3588C37.8236 35.3037 30.4983 42.5775 21.496 42.5775C12.4936 42.5775 5.16836 35.301 5.16836 26.3588C5.16836 25.3451 5.26248 24.3528 5.44249 23.39ZM6.74513 19.4076C5.08025 18.0298 4.01894 15.9557 4.01894 13.6398C4.01894 9.50128 7.40824 6.13459 11.5746 6.13459C14.5851 6.13459 17.19 7.8925 18.4035 10.4293C13.2458 11.416 8.94353 14.8224 6.74513 19.4076ZM10.4059 21.0554C12.062 17.6502 15.2611 15.119 19.0954 14.363C18.7279 18.1634 15.4953 21.145 11.5746 21.145C11.1772 21.145 10.7869 21.1143 10.4059 21.0554Z" fill="url(#paint0_linear_639_2194)"/>
<path fill-rule="evenodd" clip-rule="evenodd" d="M9.10958 2.40857C3.90763 3.53375 0 8.14401 0 13.6435C0 17.7474 2.17827 21.3563 5.44701 23.3896C5.70956 21.9923 6.14899 20.6563 6.74645 19.4082C5.08263 18.0296 4.02161 15.9563 4.02161 13.6409L4.01894 13.6435C4.01894 10.3619 6.14995 7.56565 9.10958 6.54833V2.40857Z" fill="url(#paint1_linear_639_2194)"/>
<path d="M19.0996 14.3544C18.7326 18.155 15.4987 21.1358 11.5789 21.1358C11.1797 21.1358 10.7885 21.1038 10.408 21.0453C9.82927 22.235 9.44079 23.5338 9.27734 24.8991C10.0222 25.0482 10.7912 25.1279 11.5789 25.1279C17.7573 25.1279 22.8212 20.2948 23.1374 14.232C22.6015 14.1603 22.0549 14.1202 21.4976 14.1202C20.6778 14.1202 19.874 14.2028 19.0996 14.3544Z" fill="url(#paint2_linear_639_2194)"/>
<path d="M19.0517 14.4037C19.0758 14.1641 19.0865 13.9246 19.0865 13.6798C19.0865 12.5327 18.8266 11.4469 18.3605 10.4728C13.2027 11.4575 8.89988 14.8614 6.7002 19.4472C7.72636 20.2961 8.98294 20.8816 10.3602 21.0945C12.0159 17.6906 15.2176 15.1595 19.0517 14.4037Z" fill="url(#paint3_linear_639_2194)"/>
<mask id="mask1_639_2194" style="mask-type:luminance" maskUnits="userSpaceOnUse" x="22" y="10" width="16" height="14">
<path d="M37.7779 10.1174H22.5059V23.4246H37.7779V10.1174Z" fill="white"/>
</mask>
<g mask="url(#mask1_639_2194)">
<path fill-rule="evenodd" clip-rule="evenodd" d="M22.5059 42.4812V38.478C28.7977 37.9417 33.7536 32.6826 33.7536 26.2962C33.7536 20.1058 29.0997 14.9772 23.0844 14.1788C23.0951 13.9792 23.1005 13.7796 23.1005 13.5773C23.1005 12.3717 22.9129 11.2086 22.5648 10.1174C31.0474 10.6923 37.7723 17.3538 37.7723 26.2962C37.7723 34.8847 31.0159 41.936 22.5059 42.4812Z" fill="url(#paint4_linear_639_2194)"/>
</g>
</g>
<mask id="mask2_639_2194" style="mask-type:luminance" maskUnits="userSpaceOnUse" x="43" y="18" width="89" height="17">
<path d="M132 18.8792H43.9365V34.2325H132V18.8792Z" fill="white"/>
</mask>
<g mask="url(#mask2_639_2194)">
<path d="M53.6802 23.7725C53.5667 23.4045 53.4103 23.0751 53.211 22.7843C53.0163 22.489 52.7803 22.2368 52.5041 22.0278C52.2322 21.8188 51.9194 21.662 51.5659 21.5575C51.2122 21.4485 50.8271 21.394 50.4099 21.394C49.6622 21.394 48.9959 21.5825 48.4115 21.9596C47.8267 22.3367 47.3667 22.8911 47.0314 23.6225C46.7004 24.3495 46.5351 25.2355 46.5351 26.2805C46.5351 27.3346 46.7004 28.2274 47.0314 28.9589C47.3621 29.6904 47.8221 30.247 48.4115 30.6286C49.0005 31.0057 49.6849 31.1943 50.4644 31.1943C51.1716 31.1943 51.7834 31.058 52.3002 30.7854C52.8212 30.5128 53.2225 30.1265 53.5034 29.6268C53.7845 29.1224 53.9248 28.5318 53.9248 27.8548L54.496 27.9434H50.7162V25.967H56.3654V27.6435C56.3654 28.8385 56.1117 29.8721 55.6041 30.7445C55.0966 31.6168 54.3986 32.2893 53.5103 32.7618C52.6219 33.2297 51.6022 33.4638 50.4509 33.4638C49.1681 33.4638 48.0419 33.1753 47.072 32.5982C46.1067 32.0167 45.352 31.192 44.8082 30.1243C44.269 29.052 43.999 27.7798 43.999 26.3078C43.999 25.181 44.1578 24.1746 44.4752 23.2886C44.797 22.4026 45.2454 21.6507 45.8213 21.0328C46.3968 20.4103 47.072 19.9378 47.8472 19.6152C48.622 19.2881 49.4651 19.1245 50.3759 19.1245C51.1465 19.1245 51.8649 19.2381 52.5312 19.4653C53.1974 19.6879 53.7888 20.0059 54.3056 20.4194C54.8267 20.8329 55.255 21.3236 55.5906 21.8915C55.9259 22.4594 56.1457 23.0864 56.2499 23.7725H53.6802ZM63.3185 33.4774C62.2718 33.4774 61.3676 33.2593 60.6059 32.8231C59.8493 32.3824 59.2668 31.7599 58.8589 30.9557C58.451 30.147 58.2468 29.1952 58.2468 28.1002C58.2468 27.0234 58.451 26.0783 58.8589 25.265C59.2711 24.4472 59.8469 23.8111 60.5855 23.3568C61.3244 22.8979 62.1923 22.6684 63.1895 22.6684C63.833 22.6684 64.4402 22.7729 65.0114 22.9819C65.587 23.1864 66.0945 23.5044 66.5341 23.936C66.9782 24.3677 67.3274 24.9174 67.5812 25.5854C67.8349 26.2487 67.962 27.0393 67.962 27.9571V28.7136H59.4028V27.0506H65.6028C65.5982 26.5781 65.4962 26.1578 65.2969 25.7898C65.0976 25.4172 64.8187 25.1242 64.4607 24.9106C64.1072 24.6971 63.6947 24.5903 63.2235 24.5903C62.7203 24.5903 62.2784 24.713 61.8976 24.9584C61.5171 25.1992 61.2201 25.5172 61.0072 25.9125C60.7987 26.3032 60.6921 26.7326 60.6875 27.2006V28.6522C60.6875 29.261 60.7987 29.7835 61.0208 30.2197C61.2428 30.6513 61.5534 30.983 61.952 31.2147C62.351 31.442 62.8176 31.5555 63.3525 31.5555C63.7106 31.5555 64.0346 31.5055 64.3247 31.4056C64.6148 31.3011 64.8662 31.1489 65.0794 30.9489C65.2923 30.749 65.4533 30.5014 65.5622 30.2061L67.86 30.4651C67.7148 31.0738 67.4383 31.6055 67.0304 32.0598C66.6271 32.5096 66.1103 32.8594 65.4804 33.1093C64.8504 33.3547 64.13 33.4774 63.3185 33.4774ZM74.6669 33.4774C73.6198 33.4774 72.7156 33.2593 71.9543 32.8231C71.1973 32.3824 70.6148 31.7599 70.207 30.9557C69.7991 30.147 69.5951 29.1952 69.5951 28.1002C69.5951 27.0234 69.7991 26.0783 70.207 25.265C70.6195 24.4472 71.195 23.8111 71.9339 23.3568C72.6727 22.8979 73.5406 22.6684 74.5376 22.6684C75.1811 22.6684 75.7886 22.7729 76.3595 22.9819C76.9353 23.1864 77.4429 23.5044 77.8824 23.936C78.3266 24.3677 78.6758 24.9174 78.9295 25.5854C79.1833 26.2487 79.31 27.0393 79.31 27.9571V28.7136H70.7508V27.0506H76.9512C76.9466 26.5781 76.8446 26.1578 76.6453 25.7898C76.4456 25.4172 76.1671 25.1242 75.809 24.9106C75.4553 24.6971 75.0431 24.5903 74.5715 24.5903C74.0686 24.5903 73.6268 24.713 73.2459 24.9584C72.8651 25.1992 72.5684 25.5172 72.3553 25.9125C72.1467 26.3032 72.0404 26.7326 72.0358 27.2006V28.6522C72.0358 29.261 72.1467 29.7835 72.3688 30.2197C72.5909 30.6513 72.9014 30.983 73.3004 31.2147C73.699 31.442 74.166 31.5555 74.7009 31.5555C75.059 31.5555 75.383 31.5055 75.6731 31.4056C75.9632 31.3011 76.2146 31.1489 76.4275 30.9489C76.6406 30.749 76.8014 30.5014 76.9103 30.2061L79.208 30.4651C79.0632 31.0738 78.7866 31.6055 78.3787 32.0598C77.9752 32.5096 77.4587 32.8594 76.8287 33.1093C76.1988 33.3547 75.4781 33.4774 74.6669 33.4774ZM81.5009 33.2729V19.3153H86.8307C87.8369 19.3153 88.6731 19.4743 89.3394 19.7924C90.0103 20.1059 90.5109 20.5353 90.8419 21.0805C91.1775 21.6257 91.3448 22.2436 91.3448 22.9342C91.3448 23.5022 91.2362 23.9883 91.0187 24.3927C90.8013 24.7925 90.5089 25.1174 90.1416 25.3673C89.7746 25.6172 89.3645 25.7966 88.911 25.9056V26.042C89.405 26.0692 89.8789 26.2214 90.332 26.4986C90.7897 26.7712 91.1636 27.1574 91.4537 27.6572C91.7438 28.157 91.889 28.7612 91.889 29.47C91.889 30.1925 91.7144 30.8422 91.3656 31.4192C91.0164 31.9917 90.4907 32.4437 89.7882 32.7754C89.0856 33.1071 88.2019 33.2729 87.1366 33.2729H81.5009ZM84.0231 31.1602H86.7357C87.6511 31.1602 88.3108 30.9853 88.714 30.6354C89.1219 30.2811 89.3258 29.8267 89.3258 29.2724C89.3258 28.8589 89.2239 28.4863 89.0199 28.1547C88.816 27.8185 88.5259 27.555 88.1497 27.3641C87.7735 27.1688 87.3247 27.0711 86.8037 27.0711H84.0231V31.1602ZM84.0231 25.2514H86.5182C86.9531 25.2514 87.3452 25.1719 87.6943 25.0129C88.0431 24.8493 88.3174 24.6198 88.5167 24.3245C88.7209 24.0246 88.8229 23.6703 88.8229 23.2614C88.8229 22.7207 88.6325 22.2754 88.2517 21.9256C87.8755 21.5757 87.3158 21.4008 86.5723 21.4008H84.0231V25.2514ZM96.4354 19.3153V33.2729H93.9742V19.3153H96.4354ZM103.521 33.4774C102.501 33.4774 101.617 33.2525 100.87 32.8026C100.122 32.3529 99.5417 31.7236 99.1292 30.9148C98.7213 30.1061 98.5173 29.1611 98.5173 28.0797C98.5173 26.9984 98.7213 26.051 99.1292 25.2378C99.5417 24.4245 100.122 23.7929 100.87 23.3431C101.617 22.8933 102.501 22.6684 103.521 22.6684C104.541 22.6684 105.425 22.8933 106.172 23.3431C106.92 23.7929 107.498 24.4245 107.906 25.2378C108.318 26.051 108.525 26.9984 108.525 28.0797C108.525 29.1611 108.318 30.1061 107.906 30.9148C107.498 31.7236 106.92 32.3529 106.172 32.8026C105.425 33.2525 104.541 33.4774 103.521 33.4774ZM103.535 31.501C104.087 31.501 104.55 31.3488 104.921 31.0444C105.293 30.7354 105.569 30.3219 105.751 29.8039C105.937 29.286 106.029 28.709 106.029 28.0729C106.029 27.4323 105.937 26.853 105.751 26.335C105.569 25.8125 105.293 25.3968 104.921 25.0878C104.55 24.7789 104.087 24.6244 103.535 24.6244C102.968 24.6244 102.496 24.7789 102.12 25.0878C101.749 25.3968 101.47 25.8125 101.284 26.335C101.103 26.853 101.012 27.4323 101.012 28.0729C101.012 28.709 101.103 29.286 101.284 29.8039C101.47 30.3219 101.749 30.7354 102.12 31.0444C102.496 31.3488 102.968 31.501 103.535 31.501ZM115.168 33.4774C114.126 33.4774 113.231 33.248 112.483 32.789C111.74 32.3301 111.166 31.6963 110.763 30.8876C110.364 30.0743 110.165 29.1384 110.165 28.0797C110.165 27.0165 110.369 26.0783 110.777 25.265C111.184 24.4472 111.76 23.8111 112.503 23.3568C113.251 22.8979 114.135 22.6684 115.155 22.6684C116.002 22.6684 116.752 22.8252 117.405 23.1387C118.062 23.4476 118.586 23.8861 118.975 24.454C119.365 25.0174 119.587 25.6762 119.642 26.4304H117.289C117.194 25.9261 116.968 25.5058 116.61 25.1696C116.256 24.8289 115.783 24.6585 115.189 24.6585C114.686 24.6585 114.244 24.7948 113.863 25.0674C113.482 25.3354 113.186 25.7216 112.972 26.226C112.764 26.7303 112.659 27.3346 112.659 28.0388C112.659 28.7521 112.764 29.3655 112.972 29.879C113.181 30.3878 113.473 30.7808 113.849 31.058C114.23 31.3306 114.676 31.4669 115.189 31.4669C115.551 31.4669 115.875 31.3988 116.161 31.2624C116.451 31.1215 116.693 30.9194 116.888 30.6559C117.083 30.3924 117.217 30.072 117.289 29.6949H119.642C119.583 30.4355 119.365 31.0921 118.989 31.6646C118.613 32.2324 118.101 32.6777 117.452 33.0003C116.805 33.3183 116.043 33.4774 115.168 33.4774ZM123.906 29.988L123.899 27.0097H124.293L128.046 22.8047H130.922L126.306 27.9571H125.796L123.906 29.988ZM121.663 33.2729V19.3153H124.124V33.2729H121.663ZM128.216 33.2729L124.817 28.5091L126.476 26.7712L131.16 33.2729H128.216Z" fill="white"/>
</g>
</g>
<defs>
<linearGradient id="paint0_linear_639_2194" x1="4.01894" y1="4.40467" x2="30.986" y2="39.5772" gradientUnits="userSpaceOnUse">
<stop stop-color="#00D9FF"/>
<stop offset="1" stop-color="#E14AFF"/>
</linearGradient>
<linearGradient id="paint1_linear_639_2194" x1="4.01894" y1="5.20679" x2="11.2229" y2="23.4228" gradientUnits="userSpaceOnUse">
<stop offset="0.325" stop-color="#004096" stop-opacity="0"/>
<stop offset="1" stop-color="#163D73" stop-opacity="0.8"/>
</linearGradient>
<linearGradient id="paint2_linear_639_2194" x1="20.2284" y1="20.086" x2="9.92642" y2="22.9948" gradientUnits="userSpaceOnUse">
<stop stop-color="#004096" stop-opacity="0"/>
<stop offset="0.685" stop-color="#163D73" stop-opacity="0.8"/>
</linearGradient>
<linearGradient id="paint3_linear_639_2194" x1="14.4429" y1="14.2894" x2="19.0697" y2="11.4478" gradientUnits="userSpaceOnUse">
<stop stop-color="#004096" stop-opacity="0"/>
<stop offset="1" stop-color="#163D73" stop-opacity="0.8"/>
</linearGradient>
<linearGradient id="paint4_linear_639_2194" x1="30.7505" y1="15.4529" x2="23.0807" y2="12.0825" gradientUnits="userSpaceOnUse">
<stop stop-color="#004096" stop-opacity="0"/>
<stop offset="1" stop-color="#163D73" stop-opacity="0.8"/>
</linearGradient>
<clipPath id="clip0_639_2194">
<rect width="132" height="44" fill="white"/>
</clipPath>
</defs>
</svg>
