<svg xmlns="http://www.w3.org/2000/svg" width="96" height="20" viewBox="0 0 96 20">
    <defs>
        <clipPath id="9z7vrt16va">
            <path data-name="패스 6079" d="M40.648 2.084s-.243.062-.263.2c-.018.126.087.193.239.182 2.243-.276 3.3.272 3.615.9.267.525.23 1.254-.645 1.952a2.322 2.322 0 0 0-.908 1.955 2.606 2.606 0 0 0 3.833 1.4A3.589 3.589 0 0 0 47.928 3.9c-.76-1.359-2.365-2.08-4.54-2.131h-.19a9.413 9.413 0 0 0-2.55.321" transform="translate(-40.383 -1.763)" style="fill:none"/>
        </clipPath>
        <clipPath id="y621yrtmzc">
            <path data-name="패스 6080" d="M8.737.009C3.308.883 0 3.819 0 7.2a5.368 5.368 0 0 0 .129 1.16c.4 1.8 2.438 3.359 4.692 3.836a11.306 11.306 0 0 0 5.7-.051 4.834 4.834 0 0 0 2.817-1.845c.451-.742.446-1.419.176-1.69s-1.142.105-1.013-1.162c.111-1.084-1.027-1.245-1.534-1.263h-.248c-.26.01-.614 0-.614 0C8.054 6.107 6.435 5.3 6.05 3.97S6.378 1.206 8.916.379c0 0 .276-.111.133-.308A.257.257 0 0 0 8.843 0a.652.652 0 0 0-.105.009" style="fill:none"/>
        </clipPath>
        <clipPath id="p01hz2ufxe">
            <path data-name="사각형 1766" style="fill:none" d="M0 0h96v20H0z"/>
        </clipPath>
        <radialGradient id="hhvvk7mvyb" cx=".39" cy="1.079" r=".928" gradientTransform="matrix(.938 0 0 -1 -.08 4.969)" gradientUnits="objectBoundingBox">
            <stop offset="0" stop-color="#8bb709"/>
            <stop offset=".191" stop-color="#84b30a"/>
            <stop offset=".447" stop-color="#73a910"/>
            <stop offset=".739" stop-color="#589919"/>
            <stop offset="1" stop-color="#398824"/>
        </radialGradient>
        <radialGradient id="j9qe9743pd" cx=".936" cy=".992" r="1.08" gradientTransform="matrix(.936 0 0 -1 0 3.079)" gradientUnits="objectBoundingBox">
            <stop offset="0" stop-color="#00a0e1"/>
            <stop offset=".218" stop-color="#009adc"/>
            <stop offset=".503" stop-color="#0089cf"/>
            <stop offset=".824" stop-color="#006eb9"/>
            <stop offset="1" stop-color="#005dab"/>
        </radialGradient>
    </defs>
    <g data-name="그룹 1730">
        <g data-name="그룹 1729" style="clip-path:url(#9z7vrt16va)" transform="translate(10.722 .471)">
            <path data-name="사각형 1764" transform="translate(-.016)" style="fill:url(#hhvvk7mvyb)" d="M0 0h8.321v7.86H0z"/>
        </g>
    </g>
    <g data-name="그룹 1732">
        <g data-name="그룹 1731" style="clip-path:url(#y621yrtmzc)">
            <path data-name="사각형 1765" style="fill:url(#j9qe9743pd)" d="M0 0h13.79v12.99H0z"/>
        </g>
    </g>
    <g data-name="그룹 1734">
        <g data-name="그룹 1733" style="clip-path:url(#p01hz2ufxe)">
            <path data-name="패스 6081" d="M121.6 36.364c0 2.082 2.4 3.776 5.34 3.776s5.339-1.694 5.339-3.776v-8.4a.493.493 0 0 0-.5-.479h-2.088v8.8c0 1.113-1.258 2.053-2.746 2.053s-2.748-.94-2.748-2.053v-8.323a.493.493 0 0 0-.505-.479h-3.24v1.318h.511a.621.621 0 0 1 .643.665z" transform="translate(-88.467 -20.14)" style="fill:#005dab"/>
            <path data-name="패스 6082" d="M81 27.489h-2.09v5.2h-5.492v-4.721a.5.5 0 0 0-.508-.479h-3.244v1.318h.511a.621.621 0 0 1 .642.665v9.311a1.163 1.163 0 0 0 1.157 1.167h1.442v-5.332h5.491v4.166a1.163 1.163 0 0 0 1.157 1.167h1.442V27.968a.5.5 0 0 0-.508-.479" transform="translate(-51.169 -20.14)" style="fill:#005dab"/>
            <path data-name="패스 6083" d="M182.827 38.655V32.94a.488.488 0 0 0-.5-.477H177.8v1.76h1.79a.8.8 0 0 1 .827.855v2.394a4.261 4.261 0 0 1-1.854.377 3.909 3.909 0 0 1-1.76-.406 4.125 4.125 0 0 1-2.29-3.628 4.83 4.83 0 0 1 1.493-4.568 3.6 3.6 0 0 1 2.217-.677 4.141 4.141 0 0 1 .644.041c1.063.137 2.2.6 2.216 2.214v.4l.128.017a1.4 1.4 0 0 0 1.275-.491 2.056 2.056 0 0 0 .478-1.533 2.168 2.168 0 0 0-1.25-1.656 6.811 6.811 0 0 0-3.035-.588 8.721 8.721 0 0 0-2.139.246 6.347 6.347 0 0 0-2.592 1.362 6.066 6.066 0 0 0-2.109 5.327 5.635 5.635 0 0 0 2.048 4.3 7.514 7.514 0 0 0 4.57 1.4 9.808 9.808 0 0 0 4.364-.957" transform="translate(-126.212 -19.764)" style="fill:#005dab"/>
            <path data-name="패스 6084" d="M236.188 42.482a2.212 2.212 0 0 1-.216.969 2.816 2.816 0 0 1-.576.8 2.534 2.534 0 0 1-.818.529 2.666 2.666 0 0 1-1.024.2 2.7 2.7 0 0 1-1.843-.726 2.839 2.839 0 0 1-.561-.8 2.333 2.333 0 0 1 0-1.938 2.7 2.7 0 0 1 .561-.793 2.567 2.567 0 0 1 .829-.539 2.644 2.644 0 0 1 1.014-.2 2.671 2.671 0 0 1 1.024.2 2.452 2.452 0 0 1 .818.539 2.677 2.677 0 0 1 .576.793 2.212 2.212 0 0 1 .216.969m-1.122 0a1.465 1.465 0 0 0-.118-.586 1.535 1.535 0 0 0-.8-.808 1.478 1.478 0 0 0-1.163 0 1.535 1.535 0 0 0-.8.808 1.507 1.507 0 0 0 0 1.171 1.536 1.536 0 0 0 .8.809 1.481 1.481 0 0 0 1.163 0 1.537 1.537 0 0 0 .8-.809 1.463 1.463 0 0 0 .118-.585m3.655 6.374h-6.084v-3.11h1.132v2.125h4.952zm-.247-2.2h-1.122v-7.028h1.122v2.591h1.318v1h-1.318z" transform="translate(-169.622 -29.036)" style="fill:#005dab"/>
            <path data-name="패스 6085" d="M267.293 40.844a2.681 2.681 0 0 0 .741 1.887 5.735 5.735 0 0 0 1.771 1.223l-.7.746a6.315 6.315 0 0 1-1.987-1.42 3.03 3.03 0 0 1-.381-.466 4.242 4.242 0 0 1-.412.549 6.274 6.274 0 0 1-1.915 1.493l-.772-.695a6.049 6.049 0 0 0 1.781-1.326 2.779 2.779 0 0 0 .741-1.866v-1.026h1.132zm4.365 8.012h-5.888V45.28h5.888zm-1.122-2.6h-3.644v1.627h3.644zm1.122-1.42h-1.122v-5.2h1.122z" transform="translate(-193.641 -29.037)" style="fill:#005dab"/>
            <path data-name="패스 6086" d="M300.635 41.4a2.8 2.8 0 0 0 .782 1.907 6.1 6.1 0 0 0 1.637 1.233l-.7.726a6.8 6.8 0 0 1-1.843-1.441 5.943 5.943 0 0 1-.422-.56 6.372 6.372 0 0 1-.474.643 7.428 7.428 0 0 1-1.843 1.565l-.813-.715a6.9 6.9 0 0 0 1.75-1.389 2.873 2.873 0 0 0 .791-1.969v-.29h-1.884v-.974h4.89v.974h-1.874zm4.663 7.452h-6.321v-3.106h1.133v2.125h5.19zm-.247-9.225v7.028h-1.122v-3.739h-1.915v-1.005h1.915v-2.28z" transform="translate(-218.115 -29.036)" style="fill:#005dab"/>
            <path data-name="패스 6087" d="M332.687 41.652a5.916 5.916 0 0 0 .5 2.612 7.276 7.276 0 0 0 1.554 2.094l-.772.622a8.542 8.542 0 0 1-1.769-2.38 1.365 1.365 0 0 1-.072-.145l-.082.187a9.489 9.489 0 0 1-1.647 2.519l-.9-.549a8.544 8.544 0 0 0 1.565-2.311 6.174 6.174 0 0 0 .525-2.643v-1.519h1.091zm2.265-1.824h1.091v8.81h-1.091V43.57h-1.492v-1.006h1.492zm3.068 9.121h-1.112v-9.318h1.112z" transform="translate(-242.02 -29.036)" style="fill:#005dab"/>
        </g>
    </g>
</svg>
