<svg xmlns="http://www.w3.org/2000/svg" width="71.631" height="22" viewBox="0 0 71.631 22">
    <defs>
        <clipPath id="itt3o6jswa">
            <path data-name="패스 6096" d="M40.673 2.212s-.265.068-.287.221c-.02.136.1.209.261.2 2.449-.3 3.6.295 3.947.972.292.569.252 1.36-.7 2.117A2.513 2.513 0 0 0 42.9 7.84c.2 1.253 2.1 2.549 4.186 1.521a3.878 3.878 0 0 0 1.538-5.183c-.83-1.474-2.583-2.255-4.958-2.312h-.207a10.335 10.335 0 0 0-2.785.348" transform="translate(-40.383 -1.864)" style="fill:none"/>
        </clipPath>
        <clipPath id="4tvarrtsac">
            <path data-name="패스 6097" d="M9.542.11C3.612 1.059 0 4.243 0 7.906v.006a5.788 5.788 0 0 0 .141 1.256c.434 1.953 2.662 3.643 5.123 4.16a12.428 12.428 0 0 0 6.227-.055 5.28 5.28 0 0 0 3.075-2c.493-.805.487-1.539.192-1.833s-1.248.114-1.107-1.26C13.772 7 12.53 6.825 11.976 6.8h-.271c-.284.011-.67 0-.67 0-2.239-.081-4.008-.96-4.428-2.4s.358-3 3.13-3.894c0 0 .3-.121.145-.334A.282.282 0 0 0 9.657.1a.716.716 0 0 0-.115.01" transform="translate(0 -.101)" style="fill:none"/>
        </clipPath>
        <clipPath id="372oauw86e">
            <path data-name="사각형 1775" style="fill:none" d="M0 0h71.631v22H0z"/>
        </clipPath>
        <radialGradient id="qgcu6v63nb" cx=".39" cy="1.079" r=".928" gradientTransform="matrix(.938 0 0 -1 -.08 5.035)" gradientUnits="objectBoundingBox">
            <stop offset="0" stop-color="#8bb709"/>
            <stop offset=".191" stop-color="#84b30a"/>
            <stop offset=".447" stop-color="#73a910"/>
            <stop offset=".739" stop-color="#589919"/>
            <stop offset="1" stop-color="#398824"/>
        </radialGradient>
        <radialGradient id="ar8o06ix5d" cx=".936" cy=".992" r="1.08" gradientTransform="matrix(.936 0 0 -1 0 3.119)" gradientUnits="objectBoundingBox">
            <stop offset="0" stop-color="#00a0e1"/>
            <stop offset=".218" stop-color="#009adc"/>
            <stop offset=".503" stop-color="#0089cf"/>
            <stop offset=".824" stop-color="#006eb9"/>
            <stop offset="1" stop-color="#005dab"/>
        </radialGradient>
    </defs>
    <g data-name="그룹 1768">
        <g data-name="그룹 1767" style="clip-path:url(#itt3o6jswa)" transform="translate(11.709 .54)">
            <path data-name="사각형 1773" transform="translate(-.018)" style="fill:url(#qgcu6v63nb)" d="M0 0h9.087v8.525H0z"/>
        </g>
    </g>
    <g data-name="그룹 1770">
        <g data-name="그룹 1769" style="clip-path:url(#4tvarrtsac)" transform="translate(0 .029)">
            <path data-name="사각형 1774" style="fill:url(#ar8o06ix5d)" d="M0 0h15.059v14.089H0z"/>
        </g>
    </g>
    <g data-name="그룹 1772">
        <g data-name="그룹 1771" style="clip-path:url(#372oauw86e)">
            <path data-name="패스 6098" d="M77.452 32.744a3.241 3.241 0 0 1-.32 1.427 4.157 4.157 0 0 1-.855 1.183 3.763 3.763 0 0 1-1.213.779 3.976 3.976 0 0 1-1.519.29 4.013 4.013 0 0 1-2.732-1.068 4.177 4.177 0 0 1-.832-1.183 3.412 3.412 0 0 1 0-2.855 3.967 3.967 0 0 1 .832-1.168 3.808 3.808 0 0 1 1.229-.794 3.94 3.94 0 0 1 1.5-.29 3.981 3.981 0 0 1 1.519.29 3.637 3.637 0 0 1 1.213.794 3.95 3.95 0 0 1 .855 1.168 3.239 3.239 0 0 1 .32 1.427m-1.664 0a2.148 2.148 0 0 0-.176-.863 2.269 2.269 0 0 0-1.191-1.191 2.208 2.208 0 0 0-1.725 0 2.268 2.268 0 0 0-1.191 1.191 2.208 2.208 0 0 0 0 1.725A2.268 2.268 0 0 0 72.7 34.8a2.208 2.208 0 0 0 1.725 0 2.269 2.269 0 0 0 1.191-1.191 2.147 2.147 0 0 0 .176-.863m5.419 9.388h-9.025v-4.582h1.679v3.129h7.343zm-.37-3.234h-1.664V28.546h1.664v3.816h1.954v1.465h-1.954z" transform="translate(-49.467 -20.269)" style="fill:#005dab"/>
            <path data-name="패스 6099" d="M119.489 30.332a3.932 3.932 0 0 0 1.1 2.778 8.5 8.5 0 0 0 2.626 1.8l-1.038 1.1a9.359 9.359 0 0 1-2.946-2.091 4.463 4.463 0 0 1-.565-.687 6.266 6.266 0 0 1-.611.809 9.3 9.3 0 0 1-2.839 2.2l-1.145-1.023a8.97 8.97 0 0 0 2.641-1.954 4.076 4.076 0 0 0 1.1-2.748V29h1.679zm6.473 11.8h-8.732v-5.267h8.732zM124.3 38.3h-5.4v2.4h5.4zm1.664-2.091H124.3v-7.663h1.664z" transform="translate(-80.996 -20.269)" style="fill:#005dab"/>
            <path data-name="패스 6100" d="M164.766 31.156a4.1 4.1 0 0 0 1.16 2.809 9.037 9.037 0 0 0 2.427 1.817l-1.039 1.068a10.061 10.061 0 0 1-2.732-2.122 8.756 8.756 0 0 1-.626-.824 9.386 9.386 0 0 1-.7.947 11 11 0 0 1-2.732 2.3l-1.208-1.051a10.213 10.213 0 0 0 2.6-2.046 4.214 4.214 0 0 0 1.175-2.9v-.428h-2.793v-1.432h7.251v1.435h-2.778zm6.915 10.975h-9.373v-4.579h1.679v3.129h7.694zm-.367-13.586V38.9h-1.664v-5.515h-2.839V31.9h2.839v-3.354z" transform="translate(-113.123 -20.269)" style="fill:#005dab"/>
            <path data-name="패스 6101" d="M208.225 31.523a8.664 8.664 0 0 0 .748 3.847 10.72 10.72 0 0 0 2.305 3.083l-1.145.916a12.573 12.573 0 0 1-2.625-3.511 2.016 2.016 0 0 1-.107-.214l-.122.275a13.962 13.962 0 0 1-2.442 3.71l-1.328-.809a12.563 12.563 0 0 0 2.32-3.4 9.035 9.035 0 0 0 .779-3.893v-2.233h1.618zm3.358-2.687h1.617v12.975h-1.618v-7.464h-2.212v-1.481h2.213zm4.549 13.433h-1.649V28.546h1.649z" transform="translate(-144.502 -20.269)" style="fill:#005dab"/>
            <path data-name="패스 6102" d="M96.047 4.122c0 .918 1.064 1.665 2.371 1.665s2.37-.747 2.37-1.665V.42a.218.218 0 0 0-.224-.211h-.927V4.09c0 .491-.558.906-1.219.906S97.2 4.581 97.2 4.09V.42a.218.218 0 0 0-.224-.211h-1.442V.79h.227a.275.275 0 0 1 .285.293z" transform="translate(-67.834 -.148)" style="fill:#005dab"/>
            <path data-name="패스 6103" d="M79.922.209h-.928V2.5h-2.438V.42a.219.219 0 0 0-.225-.211h-1.44V.79h.227a.275.275 0 0 1 .285.293v4.106a.515.515 0 0 0 .513.515h.64V3.352h2.438v1.837a.515.515 0 0 0 .514.515h.64V.42a.219.219 0 0 0-.226-.211" transform="translate(-53.177 -.148)" style="fill:#005dab"/>
            <path data-name="패스 6104" d="M121.3 5.149V2.63a.216.216 0 0 0-.22-.211h-2.01v.776h.794a.353.353 0 0 1 .367.377v1.056a1.908 1.908 0 0 1-.823.166 1.746 1.746 0 0 1-.781-.179 1.818 1.818 0 0 1-1.017-1.6A2.121 2.121 0 0 1 118.279 1a1.608 1.608 0 0 1 .984-.3 1.9 1.9 0 0 1 .286.018c.472.061.978.265.984.977v.177l.057.008a.624.624 0 0 0 .566-.217.9.9 0 0 0 .212-.676.956.956 0 0 0-.555-.73A3.039 3.039 0 0 0 119.465 0a3.9 3.9 0 0 0-.95.108 2.827 2.827 0 0 0-1.151.6 2.666 2.666 0 0 0-.937 2.349 2.477 2.477 0 0 0 .909 1.9 3.35 3.35 0 0 0 2.029.617 4.377 4.377 0 0 0 1.937-.422" transform="translate(-82.668)" style="fill:#005dab"/>
        </g>
    </g>
</svg>
