<svg width="168" height="218" viewBox="0 0 168 218" fill="none" xmlns="http://www.w3.org/2000/svg">
<g opacity="0.5">
<circle cx="5.61345" cy="2.63884" r="2.63884" fill="#EEEEEE"/>
<circle cx="32.0978" cy="2.63884" r="2.63884" fill="#EEEEEE"/>
<circle cx="58.5861" cy="2.63884" r="2.63884" fill="#EEEEEE"/>
<circle cx="85.0705" cy="2.63884" r="2.63884" fill="#EEEEEE"/>
<circle cx="111.559" cy="2.63884" r="2.63884" fill="#EEEEEE"/>
<circle cx="138.043" cy="2.63884" r="2.63884" fill="#EEEEEE"/>
<circle cx="164.529" cy="2.63884" r="2.63884" fill="#EEEEEE"/>
<circle cx="5.61345" cy="23.8478" r="2.63884" fill="#EEEEEE"/>
<circle cx="32.0978" cy="23.8478" r="2.63884" fill="#EEEEEE"/>
<circle cx="58.5861" cy="23.8478" r="2.63884" fill="#EEEEEE"/>
<circle cx="85.0705" cy="23.8478" r="2.63884" fill="#EEEEEE"/>
<circle cx="111.559" cy="23.8478" r="2.63884" fill="#EEEEEE"/>
<circle cx="138.043" cy="23.8478" r="2.63884" fill="#EEEEEE"/>
<circle cx="164.529" cy="23.8478" r="2.63884" fill="#EEEEEE"/>
<circle cx="5.61345" cy="45.0558" r="2.63884" fill="#EEEEEE"/>
<circle cx="32.0978" cy="45.0558" r="2.63884" fill="#EEEEEE"/>
<circle cx="58.5861" cy="45.0558" r="2.63884" fill="#EEEEEE"/>
<circle cx="85.0705" cy="45.0558" r="2.63884" fill="#EEEEEE"/>
<circle cx="111.559" cy="45.0558" r="2.63884" fill="#EEEEEE"/>
<circle cx="138.043" cy="45.0558" r="2.63884" fill="#EEEEEE"/>
<circle cx="164.529" cy="45.0558" r="2.63884" fill="#EEEEEE"/>
<circle cx="5.61345" cy="66.2638" r="2.63884" fill="#EEEEEE"/>
<circle cx="32.0978" cy="66.2638" r="2.63884" fill="#EEEEEE"/>
<circle cx="58.5861" cy="66.2638" r="2.63884" fill="#EEEEEE"/>
<circle cx="85.0705" cy="66.2638" r="2.63884" fill="#EEEEEE"/>
<circle cx="111.559" cy="66.2638" r="2.63884" fill="#EEEEEE"/>
<circle cx="138.043" cy="66.2638" r="2.63884" fill="#EEEEEE"/>
<circle cx="164.529" cy="66.2638" r="2.63884" fill="#EEEEEE"/>
<circle cx="5.61345" cy="87.4728" r="2.63884" fill="#EEEEEE"/>
<circle cx="32.0978" cy="87.4728" r="2.63884" fill="#EEEEEE"/>
<circle cx="58.5861" cy="87.4728" r="2.63884" fill="#EEEEEE"/>
<circle cx="85.0705" cy="87.4728" r="2.63884" fill="#EEEEEE"/>
<circle cx="111.559" cy="87.4728" r="2.63884" fill="#EEEEEE"/>
<circle cx="138.043" cy="87.4728" r="2.63884" fill="#EEEEEE"/>
<circle cx="164.529" cy="87.4728" r="2.63884" fill="#EEEEEE"/>
<circle cx="5.61345" cy="108.681" r="2.63884" fill="#EEEEEE"/>
<circle cx="32.0978" cy="108.681" r="2.63884" fill="#EEEEEE"/>
<circle cx="58.5861" cy="108.681" r="2.63884" fill="#EEEEEE"/>
<circle cx="85.0705" cy="108.681" r="2.63884" fill="#EEEEEE"/>
<circle cx="111.559" cy="108.681" r="2.63884" fill="#EEEEEE"/>
<circle cx="138.043" cy="108.681" r="2.63884" fill="#EEEEEE"/>
<circle cx="164.529" cy="108.681" r="2.63884" fill="#EEEEEE"/>
<circle cx="5.61345" cy="129.89" r="2.63884" fill="#EEEEEE"/>
<circle cx="32.0978" cy="129.89" r="2.63884" fill="#EEEEEE"/>
<circle cx="58.5861" cy="129.89" r="2.63884" fill="#EEEEEE"/>
<circle cx="85.0705" cy="129.89" r="2.63884" fill="#EEEEEE"/>
<circle cx="111.559" cy="129.89" r="2.63884" fill="#EEEEEE"/>
<circle cx="138.043" cy="129.89" r="2.63884" fill="#EEEEEE"/>
<circle cx="164.529" cy="129.89" r="2.63884" fill="#EEEEEE"/>
<circle cx="5.61345" cy="151.098" r="2.63884" fill="#EEEEEE"/>
<circle cx="32.0978" cy="151.098" r="2.63884" fill="#EEEEEE"/>
<circle cx="58.5861" cy="151.098" r="2.63884" fill="#EEEEEE"/>
<circle cx="85.0705" cy="151.098" r="2.63884" fill="#EEEEEE"/>
<circle cx="111.559" cy="151.098" r="2.63884" fill="#EEEEEE"/>
<circle cx="138.043" cy="151.098" r="2.63884" fill="#EEEEEE"/>
<circle cx="164.529" cy="151.098" r="2.63884" fill="#EEEEEE"/>
<circle cx="5.61345" cy="172.306" r="2.63884" fill="#EEEEEE"/>
<circle cx="32.0978" cy="172.306" r="2.63884" fill="#EEEEEE"/>
<circle cx="58.5861" cy="172.306" r="2.63884" fill="#EEEEEE"/>
<circle cx="85.0705" cy="172.306" r="2.63884" fill="#EEEEEE"/>
<circle cx="111.559" cy="172.306" r="2.63884" fill="#EEEEEE"/>
<circle cx="138.043" cy="172.306" r="2.63884" fill="#EEEEEE"/>
<circle cx="164.529" cy="172.306" r="2.63884" fill="#EEEEEE"/>
<circle cx="5.61345" cy="193.515" r="2.63884" fill="#EEEEEE"/>
<circle cx="32.0978" cy="193.515" r="2.63884" fill="#EEEEEE"/>
<circle cx="58.5861" cy="193.515" r="2.63884" fill="#EEEEEE"/>
<circle cx="85.0705" cy="193.515" r="2.63884" fill="#EEEEEE"/>
<circle cx="111.559" cy="193.515" r="2.63884" fill="#EEEEEE"/>
<circle cx="138.043" cy="193.515" r="2.63884" fill="#EEEEEE"/>
<circle cx="164.529" cy="193.515" r="2.63884" fill="#EEEEEE"/>
<circle cx="5.61345" cy="214.723" r="2.63884" fill="#EEEEEE"/>
<circle cx="32.0978" cy="214.723" r="2.63884" fill="#EEEEEE"/>
<circle cx="58.5861" cy="214.723" r="2.63884" fill="#EEEEEE"/>
<circle cx="85.0705" cy="214.723" r="2.63884" fill="#EEEEEE"/>
<circle cx="111.559" cy="214.723" r="2.63884" fill="#EEEEEE"/>
<circle cx="138.043" cy="214.723" r="2.63884" fill="#EEEEEE"/>
<circle cx="164.529" cy="214.723" r="2.63884" fill="#EEEEEE"/>
</g>
</svg>
