<svg width="125" height="100" viewBox="0 0 125 100" fill="none" xmlns="http://www.w3.org/2000/svg">
<g opacity="0.5">
<circle cx="1.51033" cy="1.50643" r="1.50838" fill="#EEEEEE"/>
<circle cx="16.651" cy="1.50643" r="1.50838" fill="#EEEEEE"/>
<circle cx="31.7896" cy="1.50643" r="1.50838" fill="#EEEEEE"/>
<circle cx="46.9283" cy="1.50643" r="1.50838" fill="#EEEEEE"/>
<circle cx="62.0689" cy="1.50643" r="1.50838" fill="#EEEEEE"/>
<circle cx="77.2095" cy="1.50643" r="1.50838" fill="#EEEEEE"/>
<circle cx="92.3482" cy="1.50643" r="1.50838" fill="#EEEEEE"/>
<circle cx="107.489" cy="1.50643" r="1.50838" fill="#EEEEEE"/>
<circle cx="122.628" cy="1.50643" r="1.50838" fill="#EEEEEE"/>
<circle cx="1.51033" cy="13.6295" r="1.50838" fill="#EEEEEE"/>
<circle cx="16.651" cy="13.6295" r="1.50838" fill="#EEEEEE"/>
<circle cx="31.7896" cy="13.6295" r="1.50838" fill="#EEEEEE"/>
<circle cx="46.9283" cy="13.6295" r="1.50838" fill="#EEEEEE"/>
<circle cx="62.0689" cy="13.6295" r="1.50838" fill="#EEEEEE"/>
<circle cx="77.2095" cy="13.6295" r="1.50838" fill="#EEEEEE"/>
<circle cx="92.3482" cy="13.6295" r="1.50838" fill="#EEEEEE"/>
<circle cx="107.489" cy="13.6295" r="1.50838" fill="#EEEEEE"/>
<circle cx="122.628" cy="13.6295" r="1.50838" fill="#EEEEEE"/>
<circle cx="1.51033" cy="25.7525" r="1.50838" fill="#EEEEEE"/>
<circle cx="16.651" cy="25.7525" r="1.50838" fill="#EEEEEE"/>
<circle cx="31.7896" cy="25.7525" r="1.50838" fill="#EEEEEE"/>
<circle cx="46.9283" cy="25.7525" r="1.50838" fill="#EEEEEE"/>
<circle cx="62.0689" cy="25.7525" r="1.50838" fill="#EEEEEE"/>
<circle cx="77.2076" cy="25.7525" r="1.50838" fill="#EEEEEE"/>
<circle cx="92.3482" cy="25.7525" r="1.50838" fill="#EEEEEE"/>
<circle cx="107.489" cy="25.7525" r="1.50838" fill="#EEEEEE"/>
<circle cx="122.628" cy="25.7525" r="1.50838" fill="#EEEEEE"/>
<circle cx="1.51033" cy="37.8756" r="1.50838" fill="#EEEEEE"/>
<circle cx="16.651" cy="37.8756" r="1.50838" fill="#EEEEEE"/>
<circle cx="31.7896" cy="37.8756" r="1.50838" fill="#EEEEEE"/>
<circle cx="46.9283" cy="37.8756" r="1.50838" fill="#EEEEEE"/>
<circle cx="62.0689" cy="37.8756" r="1.50838" fill="#EEEEEE"/>
<circle cx="77.2076" cy="37.8756" r="1.50838" fill="#EEEEEE"/>
<circle cx="92.3482" cy="37.8756" r="1.50838" fill="#EEEEEE"/>
<circle cx="107.489" cy="37.8756" r="1.50838" fill="#EEEEEE"/>
<circle cx="1.51033" cy="49.9976" r="1.50838" fill="#EEEEEE"/>
<circle cx="16.651" cy="49.9976" r="1.50838" fill="#EEEEEE"/>
<circle cx="31.7896" cy="49.9976" r="1.50838" fill="#EEEEEE"/>
<circle cx="46.9283" cy="49.9976" r="1.50838" fill="#EEEEEE"/>
<circle cx="62.0689" cy="49.9976" r="1.50838" fill="#EEEEEE"/>
<circle cx="62.0689" cy="61.5064" r="1.50838" fill="#EEEEEE"/>
<circle cx="77.2076" cy="49.9976" r="1.50838" fill="#EEEEEE"/>
<circle cx="92.5103" cy="49.9976" r="1.50838" fill="white"/>
<circle cx="1.51033" cy="62.1207" r="1.50838" fill="#EEEEEE"/>
<circle cx="16.651" cy="62.1207" r="1.50838" fill="#EEEEEE"/>
<circle cx="31.7896" cy="62.1207" r="1.50838" fill="#EEEEEE"/>
<circle cx="46.9283" cy="62.1207" r="1.50838" fill="#EEEEEE"/>
<circle cx="46.9283" cy="73.5064" r="1.50838" fill="white"/>
<circle cx="1.51033" cy="74.2437" r="1.50838" fill="#EEEEEE"/>
<circle cx="16.651" cy="74.2437" r="1.50838" fill="#EEEEEE"/>
<circle cx="31.7896" cy="74.2437" r="1.50838" fill="#EEEEEE"/>
<circle cx="1.51033" cy="86.3668" r="1.50838" fill="#EEEEEE"/>
<circle cx="16.651" cy="86.3668" r="1.50838" fill="#EEEEEE"/>
<circle cx="1.51033" cy="98.4898" r="1.50838" fill="#EEEEEE"/>
</g>
</svg>
