<svg width="171" height="113" viewBox="0 0 171 113" fill="none" xmlns="http://www.w3.org/2000/svg">
<g opacity="0.4">
<circle cx="2.06773" cy="10.5414" r="2.06773" fill="#EEEEEE"/>
<circle cx="22.8216" cy="10.5414" r="2.06773" fill="#EEEEEE"/>
<circle cx="43.5755" cy="10.5414" r="2.06773" fill="#EEEEEE"/>
<circle cx="64.3275" cy="10.5414" r="2.06773" fill="#EEEEEE"/>
<circle cx="85.0834" cy="10.5414" r="2.06773" fill="#EEEEEE"/>
<circle cx="105.837" cy="10.5414" r="2.06773" fill="#EEEEEE"/>
<circle cx="126.591" cy="10.5414" r="2.06773" fill="#EEEEEE"/>
<circle cx="147.345" cy="10.5414" r="2.06773" fill="#EEEEEE"/>
<circle cx="168.099" cy="10.5414" r="2.06773" fill="#EEEEEE"/>
<circle cx="2.06773" cy="27.1605" r="2.06773" fill="#EEEEEE"/>
<circle cx="22.8216" cy="27.1605" r="2.06773" fill="#EEEEEE"/>
<circle cx="43.5755" cy="27.1605" r="2.06773" fill="#EEEEEE"/>
<circle cx="64.3295" cy="27.1605" r="2.06773" fill="#EEEEEE"/>
<circle cx="85.0834" cy="27.1605" r="2.06773" fill="#EEEEEE"/>
<circle cx="105.837" cy="27.1605" r="2.06773" fill="#EEEEEE"/>
<circle cx="126.591" cy="27.1605" r="2.06773" fill="#EEEEEE"/>
<circle cx="147.345" cy="27.1605" r="2.06773" fill="#EEEEEE"/>
<circle cx="168.099" cy="27.1605" r="2.06773" fill="#EEEEEE"/>
<circle cx="2.06773" cy="43.7787" r="2.06773" fill="#EEEEEE"/>
<circle cx="22.8216" cy="43.7787" r="2.06773" fill="#EEEEEE"/>
<circle cx="43.5755" cy="43.7787" r="2.06773" fill="#EEEEEE"/>
<circle cx="64.3295" cy="43.7787" r="2.06773" fill="#EEEEEE"/>
<circle cx="85.0834" cy="43.7787" r="2.06773" fill="#EEEEEE"/>
<circle cx="105.837" cy="43.7787" r="2.06773" fill="#EEEEEE"/>
<circle cx="126.591" cy="43.7787" r="2.06773" fill="#EEEEEE"/>
<circle cx="147.345" cy="43.7787" r="2.06773" fill="#EEEEEE"/>
<circle cx="168.099" cy="43.7787" r="2.06773" fill="#EEEEEE"/>
<circle cx="2.06773" cy="60.3968" r="2.06773" fill="#EEEEEE"/>
<circle cx="22.8216" cy="60.3968" r="2.06773" fill="#EEEEEE"/>
<circle cx="43.5755" cy="60.3968" r="2.06773" fill="#EEEEEE"/>
<circle cx="64.3275" cy="60.3968" r="2.06773" fill="#EEEEEE"/>
<circle cx="85.0834" cy="60.3968" r="2.06773" fill="#EEEEEE"/>
<circle cx="105.837" cy="60.3968" r="2.06773" fill="#EEEEEE"/>
<circle cx="126.591" cy="60.3968" r="2.06773" fill="#EEEEEE"/>
<circle cx="147.345" cy="60.3968" r="2.06773" fill="#EEEEEE"/>
<circle cx="168.099" cy="60.3968" r="2.06773" fill="#EEEEEE"/>
<circle cx="2.06773" cy="77.015" r="2.06773" fill="#EEEEEE"/>
<circle cx="22.8216" cy="77.015" r="2.06773" fill="#EEEEEE"/>
<circle cx="43.5755" cy="77.015" r="2.06773" fill="#EEEEEE"/>
<circle cx="64.3275" cy="77.015" r="2.06773" fill="#EEEEEE"/>
<circle cx="85.0834" cy="77.015" r="2.06773" fill="#EEEEEE"/>
<circle cx="105.837" cy="77.015" r="2.06773" fill="#EEEEEE"/>
<circle cx="126.591" cy="77.015" r="2.06773" fill="#EEEEEE"/>
<circle cx="147.345" cy="77.015" r="2.06773" fill="#EEEEEE"/>
<circle cx="168.099" cy="77.015" r="2.06773" fill="#EEEEEE"/>
<circle cx="2.06773" cy="93.6332" r="2.06773" fill="#EEEEEE"/>
<circle cx="22.8216" cy="93.6332" r="2.06773" fill="#EEEEEE"/>
<circle cx="43.5755" cy="93.6332" r="2.06773" fill="#EEEEEE"/>
<circle cx="64.3295" cy="93.6332" r="2.06773" fill="#EEEEEE"/>
<circle cx="85.0834" cy="93.6332" r="2.06773" fill="#EEEEEE"/>
<circle cx="105.837" cy="93.6332" r="2.06773" fill="#EEEEEE"/>
<circle cx="126.591" cy="93.6332" r="2.06773" fill="#EEEEEE"/>
<circle cx="147.345" cy="93.6332" r="2.06773" fill="#EEEEEE"/>
<circle cx="168.099" cy="93.6332" r="2.06773" fill="#EEEEEE"/>
<circle cx="2.06773" cy="110.252" r="2.06773" fill="#EEEEEE"/>
<circle cx="22.8216" cy="110.252" r="2.06773" fill="#EEEEEE"/>
<circle cx="43.5755" cy="110.252" r="2.06773" fill="#EEEEEE"/>
<circle cx="64.3295" cy="110.252" r="2.06773" fill="#EEEEEE"/>
<circle cx="85.0834" cy="110.252" r="2.06773" fill="#EEEEEE"/>
<circle cx="105.837" cy="110.252" r="2.06773" fill="#EEEEEE"/>
<circle cx="126.591" cy="110.252" r="2.06773" fill="#EEEEEE"/>
<circle cx="147.345" cy="110.252" r="2.06773" fill="#EEEEEE"/>
<circle cx="168.099" cy="110.252" r="2.06773" fill="#EEEEEE"/>
</g>
</svg>
