<svg width="98" height="169" viewBox="0 0 98 169" fill="none" xmlns="http://www.w3.org/2000/svg">
<circle cx="15.0685" cy="2.63884" r="2.63884" fill="#EEEEEE"/>
<circle cx="41.5568" cy="2.63884" r="2.63884" fill="#EEEEEE"/>
<circle cx="68.0412" cy="2.63884" r="2.63884" fill="#EEEEEE"/>
<circle cx="94.5275" cy="2.63884" r="2.63884" fill="#EEEEEE"/>
<circle cx="15.0685" cy="23.8478" r="2.63884" fill="#EEEEEE"/>
<circle cx="41.5568" cy="23.8478" r="2.63884" fill="#EEEEEE"/>
<circle cx="68.0412" cy="23.8478" r="2.63884" fill="#EEEEEE"/>
<circle cx="94.5275" cy="23.8478" r="2.63884" fill="#EEEEEE"/>
<circle cx="15.0685" cy="45.0558" r="2.63884" fill="#EEEEEE"/>
<circle cx="41.5568" cy="45.0558" r="2.63884" fill="#EEEEEE"/>
<circle cx="68.0412" cy="45.0558" r="2.63884" fill="#EEEEEE"/>
<circle cx="94.5275" cy="45.0558" r="2.63884" fill="#EEEEEE"/>
<circle cx="15.0685" cy="66.2638" r="2.63884" fill="#EEEEEE"/>
<circle cx="41.5568" cy="66.2638" r="2.63884" fill="#EEEEEE"/>
<circle cx="68.0412" cy="66.2638" r="2.63884" fill="#EEEEEE"/>
<circle cx="94.5275" cy="66.2638" r="2.63884" fill="#EEEEEE"/>
<circle cx="15.0685" cy="87.4728" r="2.63884" fill="#EEEEEE"/>
<circle cx="41.5568" cy="87.4728" r="2.63884" fill="#EEEEEE"/>
<circle cx="68.0412" cy="87.4728" r="2.63884" fill="#EEEEEE"/>
<circle cx="94.5275" cy="87.4728" r="2.63884" fill="#EEEEEE"/>
<circle cx="15.0685" cy="108.682" r="2.63884" fill="#EEEEEE"/>
<circle cx="41.5568" cy="108.682" r="2.63884" fill="#EEEEEE"/>
<circle cx="68.0412" cy="108.681" r="2.63884" fill="#EEEEEE"/>
<circle cx="94.5275" cy="108.682" r="2.63884" fill="#EEEEEE"/>
<circle cx="15.0685" cy="129.89" r="2.63884" fill="#EEEEEE"/>
<circle cx="41.5568" cy="129.89" r="2.63884" fill="#EEEEEE"/>
<circle cx="68.0412" cy="129.89" r="2.63884" fill="#EEEEEE"/>
<circle cx="94.5275" cy="129.89" r="2.63884" fill="#EEEEEE"/>
<circle cx="15.0685" cy="151.098" r="2.63884" fill="#EEEEEE"/>
<circle cx="41.5568" cy="151.098" r="2.63884" fill="#EEEEEE"/>
<circle cx="68.0412" cy="151.098" r="2.63884" fill="#EEEEEE"/>
<circle cx="94.5275" cy="151.098" r="2.63884" fill="#EEEEEE"/>
</svg>
