<svg width="16" height="17" viewBox="0 0 16 17" fill="none" xmlns="http://www.w3.org/2000/svg">
<path d="M8.49808 2C7.32267 2.00037 6.16937 2.31964 5.16101 2.92381C4.15265 3.52799 3.32701 4.39444 2.77201 5.43088C2.21701 6.46732 1.95344 7.63493 2.00939 8.80936C2.06533 9.98378 2.43868 11.121 3.08968 12.1L2 15L5.64892 14.34C6.52757 14.7695 7.4918 14.9951 8.46974 14.9999C9.44767 15.0048 10.4141 14.7888 11.2969 14.368C12.1798 13.9472 12.9563 13.3325 13.5686 12.5698C14.181 11.807 14.6133 10.9159 14.8333 9.96271C15.0534 9.00957 15.0556 8.01902 14.8397 7.06493C14.6237 6.11083 14.1953 5.21779 13.5863 4.45237C12.9774 3.68694 12.2035 3.06889 11.3225 2.64427C10.4415 2.21965 9.47603 1.99942 8.49808 2Z" fill="#C7C7CC" stroke="#C7C7CC" stroke-linecap="round" stroke-linejoin="round"/>
</svg>
