<svg width="24" height="24" viewBox="0 0 24 24" fill="none" xmlns="http://www.w3.org/2000/svg">
<path d="M10.0258 11.4618L0.0915527 22.0059C0.091926 22.008 0.0926723 22.0099 0.0930456 22.0121C0.397703 23.1569 1.44343 24 2.68455 24C3.18068 24 3.64648 23.8659 4.04594 23.6304L4.07767 23.6118L15.26 17.1592L10.0258 11.4618Z" fill="#EA4335"/>
<path d="M20.0762 9.66618L20.0667 9.65965L15.239 6.861L9.80005 11.7008L15.2579 17.158L20.0602 14.3871C20.9021 13.9326 21.4736 13.045 21.4736 12.0215C21.4736 11.0054 20.9097 10.1222 20.0762 9.66618Z" fill="#FBBC04"/>
<path d="M0.0911083 1.99371C0.0313898 2.21392 0 2.44458 0 2.68411V21.3159C0 21.555 0.0310163 21.7864 0.0914813 22.0059L10.3676 11.7316L0.0911083 1.99371Z" fill="#4285F4"/>
<path d="M10.099 12L15.2409 6.85954L4.0713 0.383631C3.66531 0.140465 3.19148 0.000127792 2.68443 0.000127792C1.44332 0.000127792 0.396188 0.844678 0.0914375 1.99099C0.0910642 1.99211 0.0910645 1.99286 0.0910645 1.99389L10.099 12Z" fill="#34A853"/>
</svg>
