<svg width="30" height="30" viewBox="0 0 30 30" fill="none" xmlns="http://www.w3.org/2000/svg">
<g clip-path="url(#clip0_26_1266)">
<path d="M14.9767 23.2629C14.3396 23.2629 13.8184 22.7416 13.8184 22.1046V7.35361C13.8184 6.71655 14.3396 6.19531 14.9767 6.19531C15.6137 6.19531 16.135 6.71655 16.135 7.35361V22.1046C16.135 22.7416 15.6137 23.2629 14.9767 23.2629Z" fill="#C7C7CC"/>
<path d="M22.3556 15.8869H7.60459C6.96752 15.8869 6.44629 15.3657 6.44629 14.7286C6.44629 14.0915 6.96752 13.5703 7.60459 13.5703H22.3556C22.9926 13.5703 23.5139 14.0915 23.5139 14.7286C23.5139 15.3657 22.9926 15.8869 22.3556 15.8869Z" fill="#C7C7CC"/>
</g>
<defs>
<clipPath id="clip0_26_1266">
<rect width="30" height="30" fill="white"/>
</clipPath>
</defs>
</svg>
